/* XPM */
static char *airplane_mode_symbolic[] = {
/* columns rows colors chars-per-pixel */
"16 16 4 1 ",
"  c None",
". c #BDBDBD",
"X c #BEBEBE",
"o c #BFBFBF",
/* pixels */
"                ",
"             o. ",
"           oXXo ",
"  XXXX    .XXX  ",
"   oXXXXXoXXX.  ",
"    XXXXXXXXo   ",
"      XXXXXo    ",
"      .XXXX.    ",
"     XXXXXXX    ",
"  XoXXXXXXXX    ",
"  XXXXX  .XXX   ",
"   .XX.   oXX   ",
"    oXX    .X   ",
"     X.     o   ",
"                ",
"                "
};
