/* XPM */
static char *alarm_symbolic[] = {
/* columns rows colors chars-per-pixel */
"16 16 4 1 ",
"  c None",
". c #BDBDBD",
"X c #BEBEBE",
"o c #BFBFBF",
/* pixels */
"                ",
"   X.X.  XXo.   ",
"  .XX      oX.  ",
"  oX  XXXX  oo  ",
"  o XXXXXXXX o  ",
"   XX.    XXX   ",
"   X.      XX   ",
"  XX  X  X  X.  ",
"  XX   .o   X.  ",
"  XX        X.  ",
"  XX        X.  ",
"   XX      .X   ",
"   XX.    XXX   ",
"    .XXXXXX.    ",
"    XXoXXoXo    ",
"    XX    X.    "
};
