/* XPM */
static char *appointment_soon_symbolic[] = {
/* columns rows colors chars-per-pixel */
"16 16 6 1 ",
"  c None",
". c #F57800",
"X c #F57900",
"o c #BDBDBD",
"O c #BEBEBE",
"+ c #BFBFBF",
/* pixels */
"    OO+Oo       ",
"  OOOOOOOO+     ",
" OO+     +Oo    ",
" O+   O   +O    ",
"oO    O    OO   ",
"OO    O    OO   ",
"+O  OOO    OO   ",
"OO              ",
"oO      .XXXXXX.",
" O+     XXX  XXX",
" +O+    XXX  XXX",
"  oOOOO XXX  XXX",
"    +OO XXX  XXX",
"        XXXXXXXX",
"        XXX  XXX",
"        .XXXXXX."
};
