/* XPM */
static char *appointment_missed_symbolic[] = {
/* columns rows colors chars-per-pixel */
"16 16 4 1 ",
"  c None",
". c #BDBDBD",
"X c #BEBEBE",
"o c #BFBFBF",
/* pixels */
"                ",
"                ",
"    .XoX.       ",
"  XXXXXXXXo     ",
" XXo     oX.    ",
" Xo   X   oX    ",
".X    X    XX   ",
"XX    X    XX   ",
"oX  XXX    XX   ",
"XX         XX   ",
".X              ",
" Xo        X. .X",
" oXo    XX XXoX.",
"  .XXXXXXX  XXo ",
"    oXX..  .XXXX",
"           XX XX"
};
