/* XPM */
static char *audio_volume_low_symbolic[] = {
/* columns rows colors chars-per-pixel */
"16 16 4 1 ",
"  c None",
". c #BDBDBD",
"X c #BEBEBE",
"o c #BFBFBF",
/* pixels */
"                ",
"                ",
"     .          ",
"    .X          ",
"   .XX          ",
".XXXXX  X       ",
"oXXXXX oXo      ",
"XXXXXX. Xo      ",
"XXXXXX  Xo      ",
"XXXXXX XXo      ",
".XXXXX  X       ",
"    XX          ",
"     X          ",
"     .          ",
"                ",
"                "
};
