/* XPM */
static char *audio_volume_medium_symbolic[] = {
/* columns rows colors chars-per-pixel */
"16 16 4 1 ",
"  c None",
". c #BDBDBD",
"X c #BEBEBE",
"o c #BFBFBF",
/* pixels */
"                ",
"                ",
"     .          ",
"    .X          ",
"   .XX    oo    ",
".XXXXX  X .XX   ",
"oXXXXX oXo X.   ",
"XXXXXX. Xo XX   ",
"XXXXXX  Xo Xo   ",
"XXXXXX XXo X.   ",
".XXXXX  X XXX   ",
"    XX    oo    ",
"     X          ",
"     .          ",
"                ",
"                "
};
