/* XPM */
static char *audio_volume_muted_symbolic[] = {
/* columns rows colors chars-per-pixel */
"16 16 3 1 ",
"  c None",
". c #BDBDBD",
"X c #BEBEBE",
/* pixels */
"                ",
"                ",
"     .          ",
"    .X          ",
"   .XX          ",
".XXXXX          ",
"XXXXXX          ",
"XXXXXX.         ",
"XXXXXX          ",
"XXXXXX          ",
".XXXXX          ",
"    XX          ",
"     X          ",
"     .          ",
"                ",
"                "
};
