/* XPM */
static char *battery_good_symbolic[] = {
/* columns rows colors chars-per-pixel */
"16 16 3 1 ",
"  c None",
". c #BDBDBD",
"X c #BEBEBE",
/* pixels */
"                ",
"                ",
"                ",
"                ",
"                ",
"   XXXXXXXXXX   ",
"   XXXXXXXXXX   ",
"   XXXXXXXXXX   ",
"   XXXXXXXXXX   ",
"   XXXXXXXXXX   ",
"   XXXXXXXXXX   ",
"   XXXXXXXXXX   ",
"   XXXXXXXXXX   ",
"   XXXXXXXXXX   ",
"   XXXXXXXXX.   ",
"                "
};
