/* XPM */
static char *battery_good_charging_symbolic[] = {
/* columns rows colors chars-per-pixel */
"16 16 5 1 ",
"  c None",
". c #BCBCBC",
"X c #BDBDBD",
"o c #BEBEBE",
"O c #BFBFBF",
/* pixels */
"                ",
"                ",
"                ",
"                ",
"                ",
"   oooo Ooooo   ",
"   oooo  oooo   ",
"   oooo. oooo   ",
"   oo     Ooo   ",
"   ooo     oo   ",
"   oooo ooooo   ",
"   oooo  oooo   ",
"   ooooo oooo   ",
"   oooooooooo   ",
"   oooooooooX   ",
"                "
};
