/* XPM */
static char *battery_empty_symbolic[] = {
/* columns rows colors chars-per-pixel */
"16 16 4 1 ",
"  c None",
". c #ED4736",
"X c #ED4737",
"o c #ED4837",
/* pixels */
"                ",
"      XXXX      ",
"   .XXXXXXXXo   ",
"   XXXXXXXXXX   ",
"   XXXXXXXXXX   ",
"   XXXXXXXXXX   ",
"   XXXXXXXXXX   ",
"   XXXXXXXXXX   ",
"   XXXXXXXXXX   ",
"   XXXXXXXXXX   ",
"   XXXXXXXXXX   ",
"   XXXXXXXXXX   ",
"   XXXXXXXXXX   ",
"   XXXXXXXXXX   ",
"   oXXXXXXXXX   ",
"                "
};
