/* XPM */
static char *battery_low_charging_symbolic[] = {
/* columns rows colors chars-per-pixel */
"16 16 4 1 ",
"  c None",
". c #BDBDBD",
"X c #BEBEBE",
"o c #BFBFBF",
/* pixels */
"                ",
"                ",
"                ",
"                ",
"                ",
"                ",
"                ",
"                ",
"   XX     oXX   ",
"   XXX     XX   ",
"   XXXX XXXXX   ",
"   XXXX  XXXX   ",
"   XXXXX XXXX   ",
"   XXXXXXXXXX   ",
"   XXXXXXXXX.   ",
"                "
};
