/* XPM */
static char *battery_caution_charging_symbolic[] = {
/* columns rows colors chars-per-pixel */
"16 16 3 1 ",
"  c None",
". c #BDBDBD",
"X c #BEBEBE",
/* pixels */
"                ",
"                ",
"                ",
"                ",
"                ",
"                ",
"                ",
"                ",
"                ",
"                ",
"                ",
"   XXXX  XXXX   ",
"   XXXXX XXXX   ",
"   XXXXXXXXXX   ",
"   XXXXXXXXX.   ",
"                "
};
