/* XPM */
static char *bluetooth_active_symbolic[] = {
/* columns rows colors chars-per-pixel */
"16 16 4 1 ",
"  c None",
". c #BDBDBD",
"X c #BEBEBE",
"o c #BFBFBF",
/* pixels */
"                ",
"       X.       ",
"       XXo      ",
"       XXo.     ",
"   XX  X  Xo    ",
"    .o X .X     ",
"     XoXoX      ",
"      XXo       ",
"      XX.       ",
"     .XXX.      ",
"    X. X oX     ",
"   oX  X  X.    ",
"       XoX.     ",
"       XX.      ",
"       X.       ",
"                "
};
