/* XPM */
static char *brightness_display_symbolic[] = {
/* columns rows colors chars-per-pixel */
"16 16 4 1 ",
"  c None",
". c #BDBDBD",
"X c #BEBEBE",
"o c #BFBFBF",
/* pixels */
"                ",
"                ",
"                ",
"                ",
"    .      .    ",
"      X.o.      ",
"     .X  o.     ",
"     o    o     ",
"     o    o     ",
"     .o  .o     ",
"      .oo.      ",
"    .      .    ",
"                ",
"                ",
"                ",
"                "
};
