/* XPM */
static char *call_missed_symbolic[] = {
/* columns rows colors chars-per-pixel */
"16 16 4 1 ",
"  c None",
". c #BDBDBD",
"X c #BEBEBE",
"o c #BFBFBF",
/* pixels */
"                ",
"                ",
"         .....  ",
"          ....  ",
"    .      ...  ",
"     .    . ..  ",
"      .  .   .  ",
"       ..       ",
"                ",
"                ",
"                ",
"    Xo.Xo.XoX   ",
"  XXXXXXXXXXXo  ",
" .XXXX    oXXXo ",
" oXXX      XXXo ",
" oXXo      o.XX "
};
