/* XPM */
static char *channel_insecure_symbolic[] = {
/* columns rows colors chars-per-pixel */
"16 16 6 1 ",
"  c None",
". c #F57800",
"X c #F57900",
"o c #BDBDBD",
"O c #BEBEBE",
"+ c #BFBFBF",
/* pixels */
"   OoOO++       ",
"  oOOOOOOO      ",
"  +O    O+      ",
"  OO            ",
"  OO    .XXXXXX.",
"  OO    XXX  XXX",
"        XXX  XXX",
"        XXX  XXX",
"        XXX  XXX",
" oOOOOO XXXXXXXX",
" OOOOOO XXX  XXX",
" OOOOOO .XXXXXX.",
" OOOOOOo        ",
" OOOOOOOOOO     ",
" OOOOOOOOOO     ",
"                "
};
