/* XPM */
static char *checkbox_mixed_symbolic[] = {
/* columns rows colors chars-per-pixel */
"16 16 4 1 ",
"  c None",
". c #BDBDBD",
"X c #BEBEBE",
"o c #BFBFBF",
/* pixels */
"                ",
"  oXXXXXXXXXXX  ",
" .            X ",
" o            o ",
" X            X ",
" X            X ",
" X  XXXXXXXo  X ",
" X XXXXXXXXX. X ",
" X XXXXXXXXXo X ",
" X .XXXXXXXo  X ",
" X            X ",
" X            X ",
" o            o ",
" o            X ",
"  XXXXXXXXXXXX  ",
"                "
};
