/* XPM */
static char *dialog_question_symbolic[] = {
/* columns rows colors chars-per-pixel */
"16 16 3 1 ",
"  c None",
". c #BDBDBD",
"X c #BEBEBE",
/* pixels */
"                ",
"     XXXXX.     ",
"   .XXXXXXXXX   ",
"  XXX.    XXXX  ",
" XXXX  X.  XXXX ",
"XXXXXXXX.  XXXX.",
".XXXXXXX  .XXXXX",
".XXXXXX  .XXXXXX",
"XXXXXXX XXXXXXXX",
"XXXXXXXXXXXXXXXX",
" XXXXXX  XXXXXX ",
"  XXXXX  XXXXX  ",
"   .XXXXXXXXX   ",
"    XXXXXXX     ",
"   XX           ",
"                "
};
