/* XPM */
static char *dialog_password_symbolic[] = {
/* columns rows colors chars-per-pixel */
"16 16 4 1 ",
"  c None",
". c #BDBDBD",
"X c #BEBEBE",
"o c #BFBFBF",
/* pixels */
"      XXX.      ",
"     oXXXX.     ",
"    XXX  XXo    ",
"    XXX  XXo    ",
"    .XXXXXXo    ",
"    .XXXXXXX    ",
"     XXXXXX     ",
"      XXXX      ",
"      XXXX      ",
"      XXX       ",
"      XXX.      ",
"      XXX       ",
"      XXX.      ",
"      XXXX      ",
"       XX       ",
"       ..       "
};
