/* XPM */
static char *dialog_error_symbolic[] = {
/* columns rows colors chars-per-pixel */
"16 16 11 1 ",
"  c None",
". c #EC4636",
"X c #EC4736",
"o c #EC4637",
"O c #ED4637",
"+ c #ED4737",
"@ c #EC4836",
"# c #ED4837",
"$ c #EE4836",
"% c #EC4738",
"& c #ED4738",
/* pixels */
"                ",
"     %#OO#@     ",
"   ++++++++++   ",
"  X+++++++++++  ",
" +++&  #&  #+++ ",
"$+++        +++O",
"+++++      ++++X",
"O++++.    .+++++",
"O++++      +++++",
"o+++        +++o",
" O+++  ++  ++++ ",
"  ++++++++++++  ",
"   +++++++++&   ",
"    ++++++#     ",
"   O+           ",
"                "
};
