/* XPM */
static char *dialog_information_symbolic[] = {
/* columns rows colors chars-per-pixel */
"16 16 4 1 ",
"  c None",
". c #BDBDBD",
"X c #BEBEBE",
"o c #BFBFBF",
/* pixels */
"                ",
"     XXooX.     ",
"   .XXXXXXXXX   ",
"  XXXXX  XXXXX  ",
" oXXXXX  .XXXXX ",
"XXXXXXXXXXXXXXXo",
".XXXXX   XXXXXXX",
".XXXXoo  XXXXXXX",
"XXXXXXX  XXXXXXX",
"XXXXXXX  XXXXXXX",
" oXXXXo XXXXXXX ",
"  XXXX.  XXXXX  ",
"   .XXXXXXXXX   ",
"    XXXXXXX     ",
"   XX           ",
"                "
};
