/* XPM */
static char *display_brightness_symbolic[] = {
/* columns rows colors chars-per-pixel */
"16 16 4 1 ",
"  c None",
". c #BDBDBD",
"X c #BEBEBE",
"o c #BFBFBF",
/* pixels */
"                ",
"     XX  X.     ",
"  o  oXXXXo  o  ",
"   XXXXX  oXX   ",
"   XXXXX    X   ",
" XXXXXXX    .XX ",
" XXXXXXX     XX ",
"  XXXXXX     X  ",
"  XXXXXX     X  ",
" XXXXXXX     XX ",
" XXXXXXX    XXX ",
"   XXXXX    X   ",
"   XXXXX  XXX   ",
"  o  oXXXXo  o  ",
"     XX  X.     ",
"                "
};
