/* XPM */
static char *folder_visiting_symbolic[] = {
/* columns rows colors chars-per-pixel */
"16 16 3 1 ",
"  c None",
". c #BEBEBE",
"X c #BFBFBF",
/* pixels */
"                ",
"XX....X.        ",
"........        ",
"..    ......... ",
"..    ..........",
"..            ..",
"..            ..",
"..            ..",
"..            ..",
"..            ..",
"..            ..",
"..            ..",
"..            ..",
"................",
" .............. ",
"                "
};
