/* XPM */
static char *folder_drag_accept_symbolic[] = {
/* columns rows colors chars-per-pixel */
"16 16 3 1 ",
"  c None",
". c #BEBEBE",
"X c #BFBFBF",
/* pixels */
"                ",
"......          ",
"......          ",
".............X  ",
"..............  ",
"..............  ",
"................",
"..X  ......  ...",
"...   ....   ...",
"....   ..   ....",
"....   ..   ....",
"...   ....   ...",
"..X  ......  ...",
"................",
"................",
"................"
};
