/* XPM */
static char *mail_attachment_symbolic[] = {
/* columns rows colors chars-per-pixel */
"16 16 4 1 ",
"  c None",
". c #BDBDBD",
"X c #BEBEBE",
"o c #BFBFBF",
/* pixels */
"                ",
"       .XXXXXo  ",
"      XXo   .X  ",
"     oX.     X  ",
"    oX.      X  ",
"   .Xo oXX   X  ",
"   XX XX X   X  ",
"     XX  X  .X  ",
"    XX  XX XX   ",
"   Xo  X. oo    ",
"  XX  XX XX     ",
"  XX    X.      ",
"   XX  .X       ",
"    XXX.        ",
"     XX         ",
"                "
};
