/* XPM */
static char *mail_unread_symbolic[] = {
/* columns rows colors chars-per-pixel */
"16 16 3 1 ",
"  c None",
". c #4D4D4D",
"X c #4E4E4E",
/* pixels */
"                ",
"     X.....     ",
"    ........    ",
"   ...    ...   ",
"  ..        ..  ",
" X..        ... ",
" ..          .. ",
" ..          .. ",
" ..          .. ",
" ..          .. ",
" X..        ... ",
"  ..        ..  ",
"   ...    ...   ",
"    ........    ",
"     X.....     ",
"                "
};
