/* XPM */
static char *media_playlist_no_repeat_symbolic[] = {
/* columns rows colors chars-per-pixel */
"16 16 2 1 ",
"  c None",
". c #BDBDBD",
/* pixels */
"                ",
"                ",
"      .         ",
"     ...        ",
"  ......   ...  ",
" .    .       . ",
" .            . ",
" .            . ",
" .            . ",
" .            . ",
" .       .    . ",
"  ...   ......  ",
"        ...     ",
"         .      ",
"                ",
"                "
};
