/* XPM */
static char *media_playlist_repeat_song_rtl_symbolic[] = {
/* columns rows colors chars-per-pixel */
"16 16 4 1 ",
"  c None",
". c #BDBDBD",
"X c #BEBEBE",
"o c #BFBFBF",
/* pixels */
"          X...  ",
"         oXXXX. ",
"        XX.  XXo",
"  X.XXX .X   XXo",
" .XXXXX .XX  XXX",
" oX     .XX  XXX",
" XX      .XXXXX ",
" XX       oooX  ",
" XX             ",
" XX  XX      XX ",
" oX  oXX     XX ",
" oXXXXXX.  XXXX ",
"  ooXXXX.  XXX  ",
"     oXX        ",
"     XX         ",
"                "
};
