/* XPM */
static char *media_playlist_shuffle_symbolic[] = {
/* columns rows colors chars-per-pixel */
"16 16 4 1 ",
"  c None",
". c #BDBDBD",
"X c #BEBEBE",
"o c #BFBFBF",
/* pixels */
"                ",
"                ",
"           o    ",
"           XX   ",
"        XoXXXX  ",
" XoX  oXXXXXXX  ",
" XXX .XX   XX   ",
"    oXX    .    ",
"   oXo     .    ",
" XXXo  X   XX   ",
" Xoo  XXXXXXXX  ",
"        XXXXXX  ",
"           XX   ",
"           .    ",
"                ",
"                "
};
