/* XPM */
static char *media_playlist_repeat_symbolic[] = {
/* columns rows colors chars-per-pixel */
"16 16 4 1 ",
"  c None",
". c #BDBDBD",
"X c #BEBEBE",
"o c #BFBFBF",
/* pixels */
"                ",
"                ",
"                ",
"  XoXXXXXXXXo.  ",
" XXXXXXXXXXXXX. ",
" oX          Xo ",
" XX          XX ",
" XX          XX ",
" XX          XX ",
" XX       .  XX ",
" oX      oX  XX ",
" XXXX   XXXXXXo ",
"  ooX   XXXXoX  ",
"         .X     ",
"          .     ",
"                "
};
