/* XPM */
static char *network_wired_offline_symbolic[] = {
/* columns rows colors chars-per-pixel */
"16 16 3 1 ",
"  c None",
". c #BDBDBD",
"X c #BEBEBE",
/* pixels */
"                ",
"                ",
"                ",
"                ",
"                ",
"                ",
"                ",
"                ",
"                ",
"                ",
"                ",
"           XX XX",
"           XXXX.",
"            XXX ",
"           XXXXX",
"           X. XX"
};
