/* XPM */
static char *network_cellular_edge_symbolic[] = {
/* columns rows colors chars-per-pixel */
"16 16 3 1 ",
"  c None",
". c #BEBEBE",
"X c #BFBFBF",
/* pixels */
" .............. ",
"................",
"................",
"....X       ....",
"....        ....",
"....  ..........",
"....  ..........",
"....        ....",
"....        ....",
"....  ..........",
"....  ..........",
"....        ....",
".....       ....",
"................",
"................",
" .............. "
};
