/* XPM */
static char *network_wireless_connected_symbolic[] = {
/* columns rows colors chars-per-pixel */
"16 16 4 1 ",
"  c None",
". c #BDBDBD",
"X c #BEBEBE",
"o c #BFBFBF",
/* pixels */
"                ",
"                ",
"     X.XXXX     ",
"   XXXXXXXXXX   ",
" oXXo      oXX. ",
"XXX          XXX",
" XXo        .X. ",
"  .X.      oXX  ",
"   XXo    oXo   ",
"    XX   .Xo    ",
"     XX  XX     ",
"      XXXX      ",
"       XX       ",
"                ",
"                ",
"                "
};
