/* XPM */
static char *network_wireless_encrypted_symbolic[] = {
/* columns rows colors chars-per-pixel */
"16 16 4 1 ",
"  c None",
". c #BDBDBD",
"X c #BEBEBE",
"o c #BFBFBF",
/* pixels */
"                ",
"     X.XXoo     ",
"    .XXXXXXX    ",
"    oX    Xo    ",
"    XX    XX    ",
"    XX    XX    ",
"    XX    XX    ",
"  XXXXXXXXXXXX  ",
"  XXXXXXXXXXXX  ",
"  XXXXXXXXXXXX  ",
"  XXXXXXXXXXXX  ",
"  XXXXXXXXXXXX  ",
"  XXXXXXXXXXXX  ",
"  XXXXXXXXXXXX  ",
"                ",
"                "
};
