/* XPM */
static char *network_wired_no_route_symbolic[] = {
/* columns rows colors chars-per-pixel */
"16 16 14 1 ",
"  c None",
". c #FFBF54",
"X c #E9BE74",
"o c #BDBD97",
"O c #BEBE98",
"+ c #BEBEA1",
"@ c #A4BEBD",
"# c #BCBEBA",
"$ c #BDBDBD",
"% c #BEBEBE",
"& c #D5BE98",
"* c #98BEC0",
"= c #97BECA",
"- c #AEBECB",
/* pixels */
"                ",
"                ",
"  %%%%%%%%%%%%  ",
" %%%%%%%%%%%%%$ ",
" %%    -#&   %% ",
" %%      *.  %% ",
" %%      @   %% ",
" %%     =X   %% ",
" %%     +    %% ",
" %%     o    %% ",
" %%     O    %% ",
" %%%%$    $%%%$ ",
"  %%%%%%%%%%%$  ",
"     %%%%%%     ",
"                ",
"                "
};
