/* XPM */
static char *network_vpn_acquiring_symbolic[] = {
/* columns rows colors chars-per-pixel */
"16 16 2 1 ",
"  c None",
". c #555555",
/* pixels */
"                ",
"                ",
"                ",
"                ",
"                ",
"                ",
"  ..   ..   ..  ",
" .... .... .... ",
" .... .... .... ",
"  ..   ..   ..  ",
"                ",
"                ",
"                ",
"                ",
"                ",
"                "
};
