/* XPM */
static char *network_wireless_signal_good_symbolic[] = {
/* columns rows colors chars-per-pixel */
"16 16 4 1 ",
"  c None",
". c #BDBDBD",
"X c #BEBEBE",
"o c #BFBFBF",
/* pixels */
"                ",
"                ",
"                ",
"                ",
"                ",
"    XXXXXXX.    ",
"   oXXXXXXXX.   ",
"  XXXXXXXXXXX.  ",
"   XXXXXXXXXo   ",
"    XXXXXXXo    ",
"     XXXXXX     ",
"      oXXX      ",
"      oXXo      ",
"       ..       ",
"                ",
"                "
};
