/* XPM */
static char *network_transmit_receive_symbolic[] = {
/* columns rows colors chars-per-pixel */
"16 16 3 1 ",
"  c None",
". c #BDBDBD",
"X c #BEBEBE",
/* pixels */
"                ",
"          XX    ",
"          XX.   ",
"      XXXXXXXX  ",
"      XXXXXXXXX ",
"      XXXXXXXXX ",
"      XXXXXXXX  ",
"    XX    XXX   ",
"   .XX    XX    ",
"  XXXXXXXX      ",
" XXXXXXXXX      ",
" XXXXXXXXX      ",
"  XXXXXXXX      ",
"   XXX          ",
"    .X          ",
"                "
};
