/* XPM */
static char *network_cellular_acquiring_symbolic[] = {
/* columns rows colors chars-per-pixel */
"16 16 3 1 ",
"  c None",
". c #BDBDBD",
"X c #BEBEBE",
/* pixels */
"                ",
"                ",
"                ",
"                ",
"                ",
"                ",
"                ",
"                ",
"  XXX XXX XXX   ",
"  XXX XXX XXX   ",
"  XX. XX. XX.   ",
"                ",
"                ",
"                ",
"                ",
"                "
};
