/* XPM */
static char *network_wireless_signal_excellent_symbolic[] = {
/* columns rows colors chars-per-pixel */
"16 16 4 1 ",
"  c None",
". c #BDBDBD",
"X c #BEBEBE",
"o c #BFBFBF",
/* pixels */
"                ",
"                ",
"     Xo..o.     ",
"   .XXXXXXXXo   ",
" oXXXXXXXXXXXX. ",
"XXXXXXXXXXXXXXXX",
" XXXXXXXXXXXXX. ",
"  .XXXXXXXXXXX  ",
"   XXXXXXXXXo   ",
"    XXXXXXXo    ",
"     XXXXXX     ",
"      oXXX      ",
"       XX       ",
"                ",
"                ",
"                "
};
