/* XPM */
static char *network_cellular_signal_ok_symbolic[] = {
/* columns rows colors chars-per-pixel */
"16 16 2 1 ",
"  c None",
". c gray",
/* pixels */
"                ",
"                ",
"                ",
"                ",
"                ",
"                ",
"    ...         ",
"    ...         ",
"    ...         ",
"... ...         ",
"... ...         ",
"... ...         ",
"... ...         ",
"... ...         ",
"... ...         ",
"                "
};
