/* XPM */
static char *network_vpn_error_symbolic[] = {
/* columns rows colors chars-per-pixel */
"16 16 2 1 ",
"  c None",
". c #F44336",
/* pixels */
"                ",
"                ",
"                ",
"                ",
"                ",
"                ",
"            ..  ",
"            ..  ",
"            ..  ",
"            ..  ",
"            ..  ",
"            ..  ",
"                ",
"            ..  ",
"            ..  ",
"                "
};
