/* XPM */
static char *network_wired_symbolic[] = {
/* columns rows colors chars-per-pixel */
"16 16 3 1 ",
"  c None",
". c #BDBDBD",
"X c #BEBEBE",
/* pixels */
"                ",
"                ",
"  XXXXXXXXXXXX  ",
" XXXXXXXXXXXXX. ",
" XX          XX ",
" XX          XX ",
" XX          XX ",
" XX          XX ",
" XX          XX ",
" XX          XX ",
" XX          XX ",
" XXXX.    .XXX. ",
"  XXXXXXXXXXX.  ",
"     XXXXXX     ",
"                ",
"                "
};
