/* XPM */
static char *network_cellular_connected_symbolic[] = {
/* columns rows colors chars-per-pixel */
"16 16 4 1 ",
"  c None",
". c #BDBDBD",
"X c #BEBEBE",
"o c #BFBFBF",
/* pixels */
"                ",
"     Xo         ",
"     XX         ",
"     XX         ",
"     XXXXXX     ",
"XX   X    X   XX",
"oXX  X    X  XXo",
" .XX X    X XX. ",
" .XX XXXXXX XXX ",
"oXX  X X XX  XXo",
"X.   XX X X   .X",
"     X X XX     ",
"     XX X X     ",
"     .XXXX.     ",
"                ",
"                "
};
