/* XPM */
static char *non_starred_symbolic[] = {
/* columns rows colors chars-per-pixel */
"16 16 3 1 ",
"  c None",
". c #BDBDBD",
"X c #BEBEBE",
/* pixels */
"                ",
"                ",
"       XX       ",
"       XX       ",
"       .X       ",
"      .  X      ",
"  XX..    X..X  ",
"  X          X  ",
"   X        X   ",
"    X      .    ",
"    X      X    ",
"    X      X    ",
"    X .... X    ",
"    XX    XX    ",
"                ",
"                "
};
