/* XPM */
static char *notification_symbolic[] = {
/* columns rows colors chars-per-pixel */
"16 16 2 1 ",
"  c None",
". c #BEBEBE",
/* pixels */
"                ",
"       ..       ",
"      ....      ",
"     ......     ",
"    ........    ",
"    ........    ",
"    ........    ",
"    ........    ",
"    ........    ",
"    ........    ",
"   ..........   ",
"  ............  ",
"                ",
"       ..       ",
"                ",
"                "
};
