/* XPM */
static char *printer_printing_symbolic[] = {
/* columns rows colors chars-per-pixel */
"16 16 4 1 ",
"  c None",
". c #BDBDBD",
"X c #BEBEBE",
"o c #BFBFBF",
/* pixels */
"                ",
"    XXXXXXXX    ",
"    XXXXXXXX    ",
"                ",
" oXXXXXXXXXXXXo ",
" XXXXXXXXXXXXXX ",
" XXXXXXXXXXXXXX ",
" XXXXXXXXXXXXXX ",
" XX          XX ",
" oX XXXXXXXX Xo ",
"    XXX  XXX    ",
"    X.    XX    ",
"    XXX  XXX    ",
"    XXXXXXXX    ",
"                ",
"                "
};
