/* XPM */
static char *process_completed_symbolic[] = {
/* columns rows colors chars-per-pixel */
"16 16 9 1 ",
"  c None",
". c #4E9A05",
"X c #4E9906",
"o c #4D9A06",
"O c #4D9B06",
"+ c #4D9B07",
"@ c #4E9A06",
"# c #4F9A06",
"$ c #4E9B06",
/* pixels */
"                ",
"     O@XXX@     ",
"    @@@@@@@@    ",
"   X@@@@@@@@X   ",
"  @@@@@@@@X ##  ",
" O@@@@@@@@   @$ ",
" #@@@@@@@   @@X ",
" @@@X#@@+  @@@@ ",
" @@@  $@   @@@# ",
" @@@      @@@@X ",
" @@@@    @@@@@o ",
"  @@@@. #@@@@@  ",
"   X@@@@@@@@X   ",
"    #@@@@@@@    ",
"     $#@@#o     ",
"                "
};
