/* XPM */
static char *process_error_symbolic[] = {
/* columns rows colors chars-per-pixel */
"16 16 5 1 ",
"  c None",
". c #EC4736",
"X c #ED4637",
"o c #ED4737",
"O c #ED4738",
/* pixels */
"                ",
"      Oooo      ",
"    .ooooooo    ",
"   .oooooooo.   ",
"  .ooooooooooo  ",
"  oooooooooooo  ",
" oooooooooooooX ",
" ooo        oo. ",
" Xoo        ooo ",
" oooooooooooooo ",
"  oooooooooooo  ",
"  oooooooooooo  ",
"   .oooooooo.   ",
"    oooooooo    ",
"      XooX      ",
"                "
};
