/* XPM */
static char *radio_mixed_symbolic[] = {
/* columns rows colors chars-per-pixel */
"16 16 4 1 ",
"  c None",
". c #BDBDBD",
"X c #BEBEBE",
"o c #BFBFBF",
/* pixels */
"                ",
"      XXXX      ",
"    X.    XX    ",
"   X        .   ",
"  o          X  ",
" Xo          .  ",
" X  X......o  o ",
" X XXXXXXXXX. X ",
" X XXXXXXXXXo X ",
" X .XXXXXXXo  X ",
" .X          o  ",
"  .          X  ",
"   X        o   ",
"    .     X.    ",
"     .XooXX     ",
"                "
};
