/* XPM */
static char *radio_symbolic[] = {
/* columns rows colors chars-per-pixel */
"16 16 4 1 ",
"  c None",
". c #BDBDBD",
"X c #BEBEBE",
"o c #BFBFBF",
/* pixels */
"                ",
"     oXXX.o     ",
"    ..    X.    ",
"   o        .   ",
"  .          .  ",
" o.          oX ",
" X            . ",
" X            X ",
" X            o ",
" X            X ",
" XX          o. ",
"  .          o  ",
"   .        .   ",
"    .o    o.    ",
"     XXXXXX     ",
"                "
};
