/* XPM */
static char *rotation_allowed_symbolic[] = {
/* columns rows colors chars-per-pixel */
"16 16 4 1 ",
"  c None",
". c #BDBDBD",
"X c #BEBEBE",
"o c #BFBFBF",
/* pixels */
"                ",
"      X.XX      ",
"    oXXXXXXX    ",
"   XXX    XX.   ",
"   XX      XX   ",
"  XX        XX  ",
"  XX        oo  ",
"  XX        oo  ",
"  XX    X.  XX  ",
"   XX   XX XX   ",
"   .X.  XXoXo   ",
"    XX  XXXX    ",
"        XXXXXX  ",
"        XXXXXX  ",
"                ",
"                "
};
