/* XPM */
static char *rotation_locked_symbolic[] = {
/* columns rows colors chars-per-pixel */
"16 16 3 1 ",
"  c None",
". c #BDBDBD",
"X c #BEBEBE",
/* pixels */
"                ",
"      .XX.      ",
"    XXXXXXXX    ",
"   XXX    .XX   ",
"   X.      XX   ",
"            X.  ",
"            XX  ",
"   .X       XX  ",
"  X  X      X.  ",
"  X  X   X XX   ",
" XXXXXX  XXXX   ",
" XXXXXX  .XX    ",
" XXXXXX  XXXXX  ",
" XXXXXX  XXXXX  ",
"                ",
"                "
};
