/* XPM */
static char *security_medium_symbolic[] = {
/* columns rows colors chars-per-pixel */
"16 16 4 1 ",
"  c None",
". c #BDBDBD",
"X c #BEBEBE",
"o c #BFBFBF",
/* pixels */
"       XX.      ",
"    XXXXXXXo.   ",
"  XXXoX  XoXXX  ",
"  XX        XX  ",
"  XX        XX  ",
"  XX        XX  ",
"  XX        XX  ",
"  XX        XX  ",
"  XX        XX  ",
"  XX        X.  ",
"  XXo      XXX  ",
"   oXX    XXX   ",
"    XXX  XXo    ",
"     oXXXXX     ",
"       .X       ",
"                "
};
