/* XPM */
static char *semi_starred_symbolic_rtl[] = {
/* columns rows colors chars-per-pixel */
"16 16 5 1 ",
"  c None",
". c #BDBDBD",
"X c #BEBEBE",
"o c #BFBFBF",
"O c #C0C0C0",
/* pixels */
"                ",
"        .       ",
"        X       ",
"        X       ",
"        XX      ",
"        Xo      ",
"        XXXXX.Xo",
"        XXXXXXO ",
"        XXXXo   ",
"        XXXo    ",
"        XXXX    ",
"        XXX.    ",
"        XXXX    ",
"          oX    ",
"           .X   ",
"                "
};
