/* XPM */
static char *starred_symbolic[] = {
/* columns rows colors chars-per-pixel */
"16 16 4 1 ",
"  c None",
". c #BDBDBD",
"X c #BEBEBE",
"o c #BFBFBF",
/* pixels */
"                ",
"                ",
"       .o       ",
"       XX       ",
"      XXX.      ",
"      .XX.      ",
" ..XXXXXXXXXX.. ",
"  XXXXXXXXXXXX  ",
"   oXXXXXXXXX   ",
"    .XXXXXX.    ",
"    XXXXXXX.    ",
"    oXXXXXXX    ",
"    XXXooXXX    ",
"    XX    XX    ",
"   o.      oX   ",
"                "
};
