/* XPM */
static char *task_past_due_symbolic[] = {
/* columns rows colors chars-per-pixel */
"16 16 4 1 ",
"  c None",
". c #BDBDBD",
"X c #BEBEBE",
"o c #BFBFBF",
/* pixels */
"     oXXXX      ",
" oXX XXXXX X.X  ",
" XXX XXXXX XX.  ",
" XX  XXXXX  XX  ",
" XX         XX  ",
" XX         XX  ",
" XX         XX  ",
" XX         XX  ",
" XX         XX  ",
" XX         XX  ",
" XX             ",
" XX        XX XX",
" XX        XXoX.",
" XX         XXX ",
" XXXXXXXXX XXXXX",
" XXXXXXXXX X. XX"
};
