/* XPM */
static char *task_due_symbolic[] = {
/* columns rows colors chars-per-pixel */
"16 16 5 1 ",
"  c None",
". c #F57900",
"X c #BDBDBD",
"o c #BEBEBE",
"O c #BFBFBF",
/* pixels */
"     Ooooo      ",
" Ooo ooooo ooo  ",
" ooo ooooo ooX  ",
" oo  ooooo  oo  ",
" oo         oo  ",
" oo ooooooo oo  ",
" oo ooooooo oo  ",
" oo oooX        ",
" oo ooo ........",
" oo ooo ...  ...",
" oo ooo ...  ...",
" oo ooo ...  ...",
" oo     ...  ...",
" oo     ........",
" Oooooo ...  ...",
" oooooo ........"
};
