/* XPM */
static char *touchpad_disabled_symbolic[] = {
/* columns rows colors chars-per-pixel */
"16 16 3 1 ",
"  c None",
". c #BDBDBD",
"X c #BEBEBE",
/* pixels */
"   .........    ",
" .............  ",
" .           .  ",
"..           .. ",
"..           .. ",
"..           .. ",
"..           .. ",
"..           .. ",
"..           .. ",
"............... ",
"..     .        ",
" .     .   XX .X",
" ......... XXXX.",
"   .......  XXX ",
"           .XXXX",
"           XX XX"
};
