/* XPM */
static char *user_status_pending_symbolic[] = {
/* columns rows colors chars-per-pixel */
"16 16 4 1 ",
"  c None",
". c #BDBDBD",
"X c #BEBEBE",
"o c #BFBFBF",
/* pixels */
"                ",
"                ",
"     oXXXXo     ",
"   XXXXXXXXX.   ",
"  XXXXXXXXXXX.  ",
"  XXXXXXXXXXXX  ",
" oXXXXXXXXXXXXX ",
" oXX  X  X  XXX ",
" oXX  X  X  XX. ",
" XXXXXXXXXXXXX. ",
"  XXXXXXXXXXXX  ",
"  .XXXXXXXXXXX  ",
"   oXXXXXXXXXo  ",
"     .oo.XXooX  ",
"              . ",
"                "
};
