/* XPM */
static char *user_not_tracked_symbolic[] = {
/* columns rows colors chars-per-pixel */
"16 16 4 1 ",
"  c None",
". c #BDBDBD",
"X c #BEBEBE",
"o c #BFBFBF",
/* pixels */
"      o  .      ",
"    X  X X   Xo ",
"    .oXXX.  XXX ",
"  X XXXXXo XXX  ",
"   Xoo    XXX   ",
" X.X  Xo XXX oX ",
" X.  .X XXX  .X ",
".X   . XXX    X.",
"XX    XXX o   XX",
" ..  XXX oo  X. ",
"  o XXX ..  oX  ",
"   XXX    .o.   ",
"  XXX oXXXXX    ",
" oX.  X.XX      ",
" XX             ",
"                "
};
