/* XPM */
static char *user_away_symbolic[] = {
/* columns rows colors chars-per-pixel */
"16 16 4 1 ",
"  c None",
". c #BDBDBD",
"X c #BEBEBE",
"o c #BFBFBF",
/* pixels */
"                ",
"                ",
"     oX..Xo     ",
"   XXXXXXXXX.   ",
"  XXX.    XXX.  ",
"  X.        XX  ",
" oX          XX ",
" oX          XX ",
" oX          X. ",
" XX          X. ",
"  XX        XX  ",
"  .Xoo    .oXX  ",
"   oXXXXXXXXXo  ",
"     .Xo.XXooX  ",
"              . ",
"                "
};
