/* XPM */
static char *view_wrapped_symbolic_rtl[] = {
/* columns rows colors chars-per-pixel */
"16 16 4 1 ",
"  c None",
". c #BDBDBD",
"X c #BEBEBE",
"o c #BFBFBF",
/* pixels */
"                ",
"    X.XXXXoo    ",
"   .XXXXXXXXX   ",
"   oX      Xo   ",
"   XX      XX   ",
" XXXXXX    XX   ",
" XXXXX.    XX   ",
"  XXXX     XX   ",
"   ..      XX   ",
"           XX   ",
"           XX   ",
"           XX   ",
"           XX   ",
"      XXXXXXX   ",
"      XXXXXX    ",
"                "
};
