/* XPM */
static char *weather_few_clouds_night_symbolic[] = {
/* columns rows colors chars-per-pixel */
"16 16 4 1 ",
"  c None",
". c #BDBDBD",
"X c #BEBEBE",
"o c #BFBFBF",
/* pixels */
"                ",
"                ",
"      XXX       ",
"    XXXX        ",
"   .X .o        ",
"   X  XX        ",
"  XX  .X        ",
"  X.   X        ",
"  oo   o.       ",
"  o.    .  ooo  ",
"   X      XXXXX ",
"   oX   .XXXXXXX",
"    XX XXXXXXXX.",
"       XXXXXXXXX",
"       .XXXXXXX ",
"        ooXXoX  "
};
