/* XPM */
static char *weather_clouds_symbolic[] = {
/* columns rows colors chars-per-pixel */
"16 16 4 1 ",
"  c None",
". c #BDBDBD",
"X c #BEBEBE",
"o c #BFBFBF",
/* pixels */
"                ",
"      X    o    ",
"      X   .X    ",
"      XXX.      ",
" XX .XX..oXX    ",
"  . X.    .X    ",
"   XX      oooX ",
"   Xo oooX  .   ",
"   . XXXXXX.    ",
" XX  XXXXXXXoo  ",
"    XXXXXXXXXXX ",
"   oXXXXXXXXXXXX",
"  XXXXXXXXXXXXX.",
"  XXXXXXXXXXXXXX",
"  .XXXXXXXXXXXX ",
"   ooXXXXXXXoX  "
};
