/* XPM */
static char *weather_storm_symbolic[] = {
/* columns rows colors chars-per-pixel */
"16 16 4 1 ",
"  c None",
". c #BDBDBD",
"X c #BEBEBE",
"o c #BFBFBF",
/* pixels */
"     oooX       ",
"    XXXXXX.     ",
"    XXXXXXXoo   ",
"   XXXXXXXXXXX  ",
"  oXXXXXXXXXXXX ",
" XXXXXXXXXXXXXX ",
" XXXXXXXXXXXXXX ",
" .XXX     XXXX  ",
"  ooX XX. XoX   ",
"      XX        ",
"     .XXXX      ",
"     XXXX       ",
"       X        ",
"       X        ",
"      o         ",
"                "
};
