/* XPM */
static char *weather_clouds_night_symbolic[] = {
/* columns rows colors chars-per-pixel */
"16 16 3 1 ",
"  c None",
". c #BEBEBE",
"X c #BFBFBF",
/* pixels */
"                ",
"                ",
"      ...       ",
"    ....        ",
"   .. .X        ",
"   .  ..        ",
"  ..            ",
"  ..  XXX.      ",
"  X. .......    ",
"  .. .......XX  ",
"    ........... ",
"   X............",
"  ..............",
"  ..............",
"  ............. ",
"   XX.......X.  "
};
