/* XPM */
static char *weather_showers_symbolic[] = {
/* columns rows colors chars-per-pixel */
"16 16 3 1 ",
"  c None",
". c #BEBEBE",
"X c #BFBFBF",
/* pixels */
"     XXX.       ",
"    .......     ",
"    .......XX   ",
"   ...........  ",
"  X............ ",
" .............. ",
" .............. ",
" .............  ",
"  XX.......X.   ",
"                ",
"    X           ",
"    .     X     ",
"    .     .     ",
"       X  .     ",
"       .        ",
"       .        "
};
