/* XPM */
static char *arrow_circle_down_right_f[] = {
/* columns rows colors chars-per-pixel */
"24 24 2 1 ",
"  c None",
". c black",
/* pixels */
"                        ",
"                        ",
"         ......         ",
"       ..........       ",
"     ..............     ",
"    ................    ",
"    ................    ",
"   ..................   ",
"   ...... ....  .....   ",
"  ......   ...  ......  ",
"  .......   ..  ......  ",
"  ........   .  ......  ",
"  .........     ......  ",
"  ..........    ......  ",
"  ......        ......  ",
"   .....       ......   ",
"   ..................   ",
"    ................    ",
"    ................    ",
"     ..............     ",
"       ..........       ",
"         ......         ",
"                        ",
"                        "
};
