/* XPM */
static char *background_color[] = {
/* columns rows colors chars-per-pixel */
"24 24 2 1 ",
"  c None",
". c black",
/* pixels */
"                        ",
"                        ",
"                        ",
"                        ",
"                        ",
"                        ",
"       ..........       ",
"      ............      ",
"      .....  .....      ",
"      ....    ....      ",
"      ....    ....      ",
"      ...  ..  ...      ",
"      ...      ...      ",
"      ...      ...      ",
"      ..  ....  ..      ",
"      ..  ....  ..      ",
"      ............      ",
"       ..........       ",
"                        ",
"                        ",
"                        ",
"                        ",
"                        ",
"                        "
};
