/* XPM */
static char *bookmark_plus_f[] = {
/* columns rows colors chars-per-pixel */
"24 24 2 1 ",
"  c None",
". c black",
/* pixels */
"                        ",
"                        ",
"       ..........       ",
"      ............      ",
"     ..............     ",
"     ..............     ",
"     ..............     ",
"     ..............     ",
"     ......  ......     ",
"     ......  ......     ",
"     ....      ....     ",
"     ...        ...     ",
"     ......  ......     ",
"     ......  ......     ",
"     ......  ......     ",
"     ..............     ",
"     ..............     ",
"     ..............     ",
"     ..............     ",
"     ......  ......     ",
"     .....    .....     ",
"     ....      ....     ",
"                        ",
"                        "
};
