/* XPM */
static char *brightness_down_f[] = {
/* columns rows colors chars-per-pixel */
"24 24 2 1 ",
"  c None",
". c black",
/* pixels */
"                        ",
"                        ",
"                        ",
"                        ",
"                        ",
"           ..           ",
"           ..           ",
"      ..        ..      ",
"       ..  ..  ..       ",
"         ......         ",
"         ......         ",
"     .  ........  .     ",
"    ... ........ ...    ",
"        ........        ",
"         ......         ",
"          ....          ",
"      ...      ...      ",
"      ..        ..      ",
"           ..           ",
"           ..           ",
"                        ",
"                        ",
"                        ",
"                        "
};
