/* XPM */
static char *chevrons_square_left_f[] = {
/* columns rows colors chars-per-pixel */
"24 24 2 1 ",
"  c None",
". c black",
/* pixels */
"                        ",
"                        ",
"    ................    ",
"   ..................   ",
"  ....................  ",
"  ....................  ",
"  ....................  ",
"  ....................  ",
"  ........ .... ......  ",
"  .......  ..   ......  ",
"  .....   ..   .......  ",
"  .....  ...  ........  ",
"  .....  ...  ........  ",
"  ......  ..   .......  ",
"  .......  ..   ......  ",
"  ........ .... ......  ",
"  ....................  ",
"  ....................  ",
"  ....................  ",
"  ....................  ",
"   ..................   ",
"    ................    ",
"                        ",
"                        "
};
