/* XPM */
static char *google_plus_circle[] = {
/* columns rows colors chars-per-pixel */
"24 24 2 1 ",
"  c None",
". c black",
/* pixels */
"                        ",
"                        ",
"         ......         ",
"       ..........       ",
"     ....      ....     ",
"    ...          ...    ",
"    ..            ..    ",
"   ..              ..   ",
"   ..              ..   ",
"  ..     ...        ..  ",
"  ..    .           ..  ",
"  ..   .       .    ..  ",
"  ..   .  ...  .    ..  ",
"  ..   ..  ..       ..  ",
"  ..    ....        ..  ",
"   ..              ..   ",
"   ..              ..   ",
"    ..            ..    ",
"    ...          ...    ",
"     ....      ....     ",
"       ..........       ",
"         ......         ",
"                        ",
"                        "
};
