/* XPM */
static char *header_3[] = {
/* columns rows colors chars-per-pixel */
"24 24 2 1 ",
"  c None",
". c black",
/* pixels */
"                        ",
"                        ",
"                        ",
"                        ",
"                        ",
"                        ",
"                        ",
"     .     .            ",
"    ...   ...           ",
"    ...   ...           ",
"    ...   ...  ....     ",
"    .........  ....     ",
"    .........   ...     ",
"    ...   ...   ...     ",
"    ...   ...  ....     ",
"     .     .   ....     ",
"                        ",
"                        ",
"                        ",
"                        ",
"                        ",
"                        ",
"                        ",
"                        "
};
