/* XPM */
static char *instant_picture_f[] = {
/* columns rows colors chars-per-pixel */
"24 24 2 1 ",
"  c None",
". c black",
/* pixels */
"                        ",
"                        ",
"     ..............     ",
"    ................    ",
"    ................    ",
"    ....    ........    ",
"    ...      .......    ",
"    ...      .......    ",
"    ...      .......    ",
"    ...      .......    ",
"    ....    ..    ..    ",
"    .........      .    ",
"    ........   ..       ",
"    .......   ....      ",
"    .......  .....      ",
"    ......  .......     ",
"                        ",
"                        ",
"    ................    ",
"    ................    ",
"    ................    ",
"     ..............     ",
"                        ",
"                        "
};
