/* XPM */
static char *screwdriver[] = {
/* columns rows colors chars-per-pixel */
"24 24 2 1 ",
"  c None",
". c black",
/* pixels */
"                        ",
"                        ",
"                 ....   ",
"                ......  ",
"               ...  ..  ",
"              ...   ..  ",
"             ...   ...  ",
"            ...   ...   ",
"           ...   ...    ",
"          ...   ...     ",
"          ..   ...      ",
"          ... ...       ",
"          ......        ",
"         ......         ",
"        ...             ",
"       ...              ",
"      ...               ",
"    ....                ",
"   ....                 ",
"  .....                 ",
"  ....                  ",
"   ..                   ",
"                        ",
"                        "
};
