/* XPM */
static char *shield_close[] = {
/* columns rows colors chars-per-pixel */
"24 24 2 1 ",
"  c None",
". c black",
/* pixels */
"                        ",
"                        ",
"           ..           ",
"        ........        ",
"     ......  ......     ",
"    ....        ....    ",
"    ..            ..    ",
"    ..            ..    ",
"    ..   ..  ..   ..    ",
"    ..   ......   ..    ",
"    ..    ....    ..    ",
"    ..    ....    ..    ",
"    ..   ......   ..    ",
"     ..  ..  ..  ..     ",
"     ..          ..     ",
"      ..        ..      ",
"      ...      ...      ",
"       ...    ...       ",
"        ...  ...        ",
"         ......         ",
"          ....          ",
"           ..           ",
"                        ",
"                        "
};
