/* XPM */
static char *task_list_f[] = {
/* columns rows colors chars-per-pixel */
"24 24 2 1 ",
"  c None",
". c black",
/* pixels */
"                        ",
"                        ",
"      ............      ",
"    ................    ",
"   ..................   ",
"   ..................   ",
"  ....................  ",
"  .........       ....  ",
"  .........       ....  ",
"  ....................  ",
"  ........  ..........  ",
"  .... ..  ..     ....  ",
"  ....    ...     ....  ",
"  ....   .............  ",
"  ..... ..............  ",
"  .........       ....  ",
"  .........       ....  ",
"  ....................  ",
"   ..................   ",
"   ..................   ",
"    ................    ",
"      ............      ",
"                        ",
"                        "
};
