/* XPM */
static char *volume_up_circle[] = {
/* columns rows colors chars-per-pixel */
"24 24 2 1 ",
"  c None",
". c black",
/* pixels */
"                        ",
"                        ",
"         ......         ",
"       ..........       ",
"     ....      ....     ",
"    ...          ...    ",
"    ..            ..    ",
"   ..    ....      ..   ",
"   ..   ..... ...  ..   ",
"  ..  .... .. ....  ..  ",
"  .. ....  ..   ... ..  ",
"  .. ..    .. .. .. ..  ",
"  .. ..    .. .. .. ..  ",
"  .. ....  ..   ... ..  ",
"  ..  .... .. ....  ..  ",
"   ..   ..... ...  ..   ",
"   ..    ....      ..   ",
"    ..            ..    ",
"    ...          ...    ",
"     ....      ....     ",
"       ..........       ",
"         ......         ",
"                        ",
"                        "
};
