#define airplane-mode-symbolic_width 16
#define airplane-mode-symbolic_height 16
static char airplane-mode-symbolic_bits[] = {
  0x00, 0x00, 0x00, 0x60, 0x00, 0x70, 0x7C, 0x3C, 0xF8, 0x1F, 0xF0, 0x1F, 
  0xC0, 0x0F, 0xC0, 0x0F, 0xE0, 0x0F, 0xFC, 0x1F, 0x7C, 0x1E, 0x78, 0x1C, 
  0x70, 0x18, 0x60, 0x10, 0x00, 0x00, 0x00, 0x00, };
