#define alarm-symbolic_width 16
#define alarm-symbolic_height 16
static char alarm-symbolic_bits[] = {
  0x00, 0x00, 0x78, 0x1C, 0x18, 0x3C, 0xEC, 0x33, 0xF4, 0x0F, 0x78, 0x1C, 
  0x18, 0x18, 0x4C, 0x36, 0x8C, 0x31, 0x0C, 0x31, 0x0C, 0x30, 0x1C, 0x18, 
  0x38, 0x1C, 0xF0, 0x0F, 0xF0, 0x0F, 0x30, 0x0C, };
