#define appointment-soon-symbolic_width 16
#define appointment-soon-symbolic_height 16
static char appointment-soon-symbolic_bits[] = {
  0x40, 0x00, 0xF8, 0x03, 0x04, 0x06, 0x46, 0x08, 0x02, 0x08, 0x42, 0x10, 
  0x63, 0x18, 0x01, 0x00, 0x00, 0xFF, 0x06, 0xE7, 0x0E, 0xE7, 0x70, 0xE7, 
  0x60, 0xE7, 0x00, 0xFF, 0x00, 0xE7, 0x00, 0xFF, };
