#define appointment-missed-symbolic_width 16
#define appointment-missed-symbolic_height 16
static char appointment-missed-symbolic_bits[] = {
  0x00, 0x00, 0x00, 0x00, 0xF0, 0x01, 0xFC, 0x07, 0x1E, 0x0F, 0x46, 0x0C, 
  0x43, 0x18, 0x43, 0x18, 0x73, 0x18, 0x03, 0x18, 0x07, 0x00, 0x06, 0xD8, 
  0x0E, 0xFB, 0xFC, 0x73, 0xF0, 0xF9, 0x00, 0xD8, };
