#define rsz_download_width 16
#define rsz_download_height 16
static char rsz_download_bits[] = {
  0xFF, 0xFF, 0xFF, 0xFF, 0x7F, 0xFE, 0x7F, 0xFE, 0x7F, 0xFE, 0x3F, 0xFC, 
  0x3F, 0xFC, 0x1F, 0xF8, 0x9F, 0xF1, 0x8F, 0xF9, 0xC7, 0xE3, 0xF7, 0xEF, 
  0xFF, 0xFF, 0xFF, 0xFF, 0xFF, 0xFF, 0xFF, 0xFF, };
