/* XPM */
static char * archlinux_xpm[] = {
"24 24 2 1",
" 	c None",
".	c #1793D1",
"                        ",
"                        ",
"           ..           ",
"           ..           ",
"           ..           ",
"          ....          ",
"          ....          ",
"         ......         ",
"         ......         ",
"        ........        ",
"        ........        ",
"       ..........       ",
"       ..........       ",
"      ............      ",
"      .....  .....      ",
"     .....    .....     ",
"     .....    .....     ",
"    ......    ......    ",
"    ......    ......    ",
"   .....        .....   ",
"  ....            ....  ",
"  .                  .  ",
"                        ",
"                        "};
