/* XPM */
static char *archlinux[] = {
/* columns rows colors chars-per-pixel */
"22 22 46 1 ",
"  c None",
". c #1693D1",
"X c #1793D1",
"o c #1893D1",
"O c #1994D1",
"+ c #1B95D2",
"@ c #1D96D2",
"# c #1E96D2",
"$ c #1E96D3",
"% c #2097D3",
"& c #2198D3",
"* c #2298D3",
"= c #2398D3",
"- c #2499D4",
"; c #269AD4",
": c #279BD4",
"> c #289BD4",
", c #299CD5",
"< c #2A9CD5",
"1 c #2B9CD5",
"2 c #2C9DD5",
"3 c #2D9DD5",
"4 c #2F9ED6",
"5 c #32A0D6",
"6 c #33A0D7",
"7 c #34A0D7",
"8 c #35A1D7",
"9 c #36A2D7",
"0 c #37A2D7",
"q c #38A3D8",
"w c #3AA3D8",
"e c #3BA4D8",
"r c #3DA5D8",
"t c #3DA5D9",
"y c #3EA5D9",
"u c #41A7D9",
"i c #43A7DA",
"p c #43A8DA",
"a c #46A9DA",
"s c #47A9DA",
"d c #4BABDB",
"f c #4EADDC",
"g c #4FADDC",
"h c #53AFDD",
"j c #57B1DE",
"k c #58B2DE",
/* pixels */
"                      ",
"          O;          ",
"          X-          ",
"          O$          ",
"         -%@4         ",
"         2:=1         ",
"         64<,e        ",
"        uw9539        ",
"       dsiyw87p       ",
"       hgdaurqy       ",
"      kjft4>;>3t      ",
"      g0&o....X#      ",
"     8*..XXXXXXX+     ",
"     X.XXX  XXXXX     ",
"    XXXXX    XXXXX    ",
"    XXXXX    XXXXX    ",
"   XXXXXX    XXXXX    ",
"  XXXXXXX    XXXXXX   ",
"  XXXXX        XXXXX  ",
" XXX             XXXX ",
" X                  X ",
"                      "
};
