/* XPM */
static char *archlinux[] = {
/* columns rows colors chars-per-pixel */
"22 22 71 1 ",
"  c None",
". c #000000",
"X c #010101",
"o c #020202",
"O c #030303",
"+ c #040404",
"@ c #070707",
"# c #080808",
"$ c #090909",
"% c #111111",
"& c #131313",
"* c #141414",
"= c #161616",
"- c #202020",
"; c #242424",
": c #2B2B2B",
"> c #343434",
", c #363636",
"< c #373737",
"1 c #383838",
"2 c #393939",
"3 c #3F3F3F",
"4 c #414141",
"5 c #4B4B4B",
"6 c #4C4C4C",
"7 c #505050",
"8 c #555555",
"9 c #565656",
"0 c #575757",
"q c #5C5C5C",
"w c #5E5E5E",
"e c #696969",
"r c #6D6D6D",
"t c #818181",
"y c #888888",
"u c #8A8A8A",
"i c #8B8B8B",
"p c #909090",
"a c #939393",
"s c #949494",
"d c #969696",
"f c #999999",
"g c #9E9E9E",
"h c #9F9F9F",
"j c #A0A0A0",
"k c #A3A3A3",
"l c #A5A5A5",
"z c #ABABAB",
"x c #AFAFAF",
"c c #B3B3B3",
"v c #B9B9B9",
"b c #D0D0D0",
"n c #DFDFDF",
"m c #E0E0E0",
"M c #E2E2E2",
"N c #E3E3E3",
"B c #E7E7E7",
"V c #E8E8E8",
"C c #EAEAEA",
"Z c #EBEBEB",
"A c #EFEFEF",
"S c #F0F0F0",
"D c #F1F1F1",
"F c #F2F2F2",
"G c #F3F3F3",
"H c #F4F4F4",
"J c #F6F6F6",
"K c #F8F8F8",
"L c #F9F9F9",
"P c #FDFDFD",
"I c #FFFFFF",
/* pixels */
"        ......        ",
"     .....##.....     ",
"    ......80......    ",
"   ......@cv$......   ",
"  .......2AG4.......  ",
" ........uIIhO....... ",
" .......-dCIZ,....... ",
" .......uDMPIfo...... ",
".......:NIIIIZ<.......",
"......XpIIIIIIh+......",
"......>VIHiyFIA3......",
".....+gIIlOXgIIz#.....",
".....4SIIe..wILb1.....",
"....$xIIKq..7JIBrO....",
" ...9Kns6&..%5amG0... ",
" ..&jt;........;tk*.. ",
" ..=;............;=.. ",
"  ..................  ",
"   ................   ",
"    ..............    ",
"     ............     ",
"        ......        "
};
