/* XPM */
static char *archlinux[] = {
/* columns rows colors chars-per-pixel */
"20 20 63 1 ",
"  c None",
". c #000000",
"X c #010101",
"o c #040404",
"O c #060606",
"+ c #070707",
"@ c #080808",
"# c #0A0A0A",
"$ c #0B0B0B",
"% c #0C0C0C",
"& c #0D0D0D",
"* c #0F0F0F",
"= c #101010",
"- c #1A1A1A",
"; c #1C1C1C",
": c #242424",
"> c #252525",
", c #3B3B3B",
"< c #404040",
"1 c #414141",
"2 c #434343",
"3 c #444444",
"4 c #474747",
"5 c #484848",
"6 c #4C4C4C",
"7 c #505050",
"8 c #585858",
"9 c #5E5E5E",
"0 c #5F5F5F",
"q c #656565",
"w c #686868",
"e c #767676",
"r c #7E7E7E",
"t c #888888",
"y c #949494",
"u c #989898",
"i c #9A9A9A",
"p c #A1A1A1",
"a c #ABABAB",
"s c #AFAFAF",
"d c #B1B1B1",
"f c #B4B4B4",
"g c #B6B6B6",
"h c #BABABA",
"j c #BFBFBF",
"k c #C5C5C5",
"l c #C6C6C6",
"z c #C7C7C7",
"x c #C8C8C8",
"c c #D6D6D6",
"v c #DADADA",
"b c #E4E4E4",
"n c #E5E5E5",
"m c #EFEFEF",
"M c #F1F1F1",
"N c #F4F4F4",
"B c #F5F5F5",
"V c #F7F7F7",
"C c #F8F8F8",
"Z c #F9F9F9",
"A c #FDFDFD",
"S c #FEFEFE",
"D c #FFFFFF",
/* pixels */
"       ......       ",
"     ....**....     ",
"   ......qw......   ",
"  ......$jk*......  ",
"  ......4BC7......  ",
" ......XeZDd@...... ",
" ......,xvSN5...... ",
"......opDASDs@......",
"......<mDDDDB6......",
".....+aDCiuVDg%.....",
".....6BDh#@fDV8.....",
"....&hDDt..rDMy+....",
"....0ASnw..9bAc1....",
" ..-llw>+..O:wzx;.. ",
" ..29=........=03.. ",
"  .O............O.  ",
"  ................  ",
"   ..............   ",
"     ..........     ",
"       ......       "
};
