#define audio-volume-medium-symbolic_width 16
#define audio-volume-medium-symbolic_height 16
static char audio-volume-medium-symbolic_bits[] = {
  0x00, 0x00, 0x00, 0x00, 0x00, 0x10, 0x30, 0x00, 0x38, 0x0C, 0x3F, 0x1D, 
  0x3F, 0x5B, 0x7F, 0x5B, 0x7F, 0x1B, 0x3F, 0x9B, 0x3F, 0x1D, 0x38, 0x4C, 
  0x30, 0x40, 0x00, 0x00, 0x00, 0x00, 0x00, 0x00, };
