#define audio-volume-muted-symbolic_width 16
#define audio-volume-muted-symbolic_height 16
static char audio-volume-muted-symbolic_bits[] = {
  0x00, 0x00, 0x00, 0x00, 0x20, 0x10, 0x20, 0x00, 0x38, 0x00, 0x3E, 0x48, 
  0x3F, 0x01, 0x7F, 0x40, 0x3F, 0x12, 0x3F, 0x40, 0x3F, 0x00, 0x38, 0x08, 
  0x30, 0x00, 0x00, 0x10, 0x00, 0x00, 0x00, 0x00, };
