#define audio-volume-low-symbolic_width 16
#define audio-volume-low-symbolic_height 16
static char audio-volume-low-symbolic_bits[] = {
  0x00, 0x00, 0x00, 0x00, 0x20, 0x10, 0x20, 0x00, 0x38, 0x00, 0x3F, 0x41, 
  0x3F, 0x0B, 0x7F, 0x43, 0x7F, 0x03, 0x3F, 0x53, 0x3F, 0x19, 0x38, 0x00, 
  0x30, 0x20, 0x00, 0x00, 0x00, 0x00, 0x00, 0x00, };
