#define audio-volume-high-symbolic_width 16
#define audio-volume-high-symbolic_height 16
static char audio-volume-high-symbolic_bits[] = {
  0x00, 0x00, 0x00, 0x20, 0x00, 0x30, 0x30, 0x70, 0x38, 0x6C, 0x3F, 0xED, 
  0x3F, 0xDB, 0x7F, 0xDB, 0x3F, 0xDB, 0xBF, 0xDB, 0x3F, 0xED, 0x38, 0x6C, 
  0x30, 0x70, 0x00, 0x30, 0x00, 0x20, 0x00, 0x00, };
