#define avatar-default-symbolic_width 16
#define avatar-default-symbolic_height 16
static char avatar-default-symbolic_bits[] = {
  0x00, 0x00, 0xC0, 0x03, 0xE0, 0x07, 0xF0, 0x0F, 0xF0, 0x0F, 0xF0, 0x0F, 
  0xF0, 0x0F, 0xF0, 0x0F, 0xE0, 0x0F, 0xE0, 0x07, 0xE0, 0x03, 0xC0, 0x03, 
  0xE0, 0x07, 0xF8, 0x1F, 0xFE, 0x7F, 0xFF, 0xFF, };
