#define battery-empty-symbolic_width 16
#define battery-empty-symbolic_height 16
static char battery-empty-symbolic_bits[] = {
  0x00, 0x00, 0xC0, 0x03, 0xF8, 0x1F, 0xF8, 0x1F, 0xF8, 0x1F, 0xF8, 0x1F, 
  0xF8, 0x1F, 0xF8, 0x1F, 0xF8, 0x1F, 0xF8, 0x1F, 0xF8, 0x1F, 0xF8, 0x1F, 
  0xF8, 0x1F, 0xF8, 0x1F, 0xF8, 0x1F, 0x00, 0x00, };
