#define battery-good-symbolic_width 16
#define battery-good-symbolic_height 16
static char battery-good-symbolic_bits[] = {
  0x00, 0x00, 0x00, 0x01, 0x60, 0x04, 0x20, 0x09, 0xA0, 0x11, 0xF8, 0x1F, 
  0xF8, 0x1F, 0xF8, 0x1F, 0xF8, 0x1F, 0xF8, 0x1F, 0xF8, 0x1F, 0xF8, 0x1F, 
  0xF8, 0x1F, 0xF8, 0x1F, 0xF8, 0x1F, 0x00, 0x00, };
