#define battery-full-charged-symbolic_width 16
#define battery-full-charged-symbolic_height 16
static char battery-full-charged-symbolic_bits[] = {
  0x00, 0x00, 0xC0, 0x03, 0xF8, 0x1F, 0xF8, 0x1F, 0xF8, 0x1F, 0x78, 0x1F, 
  0xF8, 0x1E, 0x78, 0x1E, 0x18, 0x1C, 0x38, 0x18, 0x78, 0x1E, 0x78, 0x1E, 
  0xF8, 0x1E, 0xF8, 0x1F, 0xF8, 0x1F, 0x00, 0x00, };
