#define battery-low-symbolic_width 16
#define battery-low-symbolic_height 16
static char battery-low-symbolic_bits[] = {
  0x00, 0x00, 0x00, 0x00, 0x00, 0x03, 0xD0, 0x08, 0x20, 0x06, 0x48, 0x10, 
  0x30, 0x09, 0x80, 0x09, 0xF8, 0x1F, 0xF8, 0x1F, 0xF8, 0x1F, 0xF8, 0x1F, 
  0xF8, 0x1F, 0xF8, 0x1F, 0xF8, 0x1F, 0x00, 0x00, };
