#define battery-low-charging-symbolic_width 16
#define battery-low-charging-symbolic_height 16
static char battery-low-charging-symbolic_bits[] = {
  0x00, 0x00, 0x00, 0x01, 0x40, 0x00, 0x90, 0x06, 0x20, 0x14, 0x08, 0x03, 
  0x30, 0x08, 0x40, 0x08, 0x18, 0x1C, 0x38, 0x18, 0x78, 0x1E, 0x78, 0x1E, 
  0xF8, 0x1E, 0xF8, 0x1F, 0xF8, 0x1F, 0x00, 0x00, };
