#define battery-empty-charging-symbolic_width 16
#define battery-empty-charging-symbolic_height 16
static char battery-empty-charging-symbolic_bits[] = {
  0x00, 0x00, 0xC0, 0x03, 0xF8, 0x1F, 0xF8, 0x1F, 0xF8, 0x1F, 0x78, 0x1F, 
  0x78, 0x1E, 0xF8, 0x1E, 0x18, 0x1C, 0x38, 0x18, 0x78, 0x1E, 0x78, 0x1E, 
  0xF8, 0x1E, 0xF8, 0x1F, 0xF8, 0x1F, 0x00, 0x00, };
