#define battery-good-charging-symbolic_width 16
#define battery-good-charging-symbolic_height 16
static char battery-good-charging-symbolic_bits[] = {
  0x00, 0x00, 0x00, 0x01, 0x60, 0x04, 0x20, 0x09, 0xA0, 0x14, 0x78, 0x1F, 
  0x78, 0x1F, 0xF8, 0x1E, 0x18, 0x1C, 0x38, 0x18, 0x78, 0x1E, 0x78, 0x1E, 
  0xF8, 0x1E, 0xF8, 0x1F, 0xF8, 0x1F, 0x00, 0x00, };
