#define battery-caution-charging-symbolic_width 16
#define battery-caution-charging-symbolic_height 16
static char battery-caution-charging-symbolic_bits[] = {
  0x00, 0x00, 0x00, 0x00, 0x90, 0x03, 0x40, 0x08, 0x20, 0x06, 0x48, 0x10, 
  0x30, 0x0A, 0x00, 0x08, 0x08, 0x08, 0x10, 0x10, 0x00, 0x04, 0x78, 0x1E, 
  0xF8, 0x1E, 0xF8, 0x1F, 0xF8, 0x1F, 0x00, 0x00, };
