#define battery-caution-symbolic_width 16
#define battery-caution-symbolic_height 16
static char battery-caution-symbolic_bits[] = {
  0x00, 0x00, 0x00, 0x00, 0x10, 0x0C, 0xC0, 0x01, 0x20, 0x01, 0x40, 0x1C, 
  0x30, 0x02, 0x80, 0x04, 0x80, 0x0A, 0x30, 0x08, 0x00, 0x01, 0xF8, 0x1F, 
  0xF8, 0x1F, 0xF8, 0x1F, 0xF8, 0x1F, 0x00, 0x00, };
