/* XPM */
static char *battery__1_[] = {
/* columns rows colors chars-per-pixel */
"24 24 18 1 ",
"  c None",
". c black",
"X c gray5",
"o c gray12",
"O c gray24",
"+ c #4C4C4C",
"@ c #656565",
"# c #686868",
"$ c #6A6A6A",
"% c #6F6F6F",
"& c #00C37A",
"* c #1FCA8A",
"= c #3FD29B",
"- c #AFAFAF",
"; c #DFF7EE",
": c #E3F8F0",
"> c #E7F9F2",
", c white",
/* pixels */
"                        ",
"                        ",
"                        ",
"                        ",
"                        ",
"                        ",
"...................#    ",
".+-----------------$OOOO",
".%,:;;;;;;;;;;;;;>,@ooX.",
".%,*&&&&&&&&&&&&&=,,,,%.",
".%,*&&&&&&&&&&&&&=,,,,%.",
".%,*&&&&&&&&&&&&&=,,,,%.",
".%,*&&&&&&&&&&&&&=,,,,%.",
".%,*&&&&&&&&&&&&&=,,,,%.",
".%,*&&&&&&&&&&&&&=,,,,%.",
".%,:;;;;;;;;;;;;;>,@ooX.",
".+-----------------$OOOO",
"...................#    ",
"                        ",
"                        ",
"                        ",
"                        ",
"                        ",
"                        "
};
