#define bluetooth-active-symbolic_width 16
#define bluetooth-active-symbolic_height 16
static char bluetooth-active-symbolic_bits[] = {
  0x80, 0x00, 0x80, 0x01, 0x80, 0x03, 0x80, 0x06, 0x98, 0x0D, 0xB0, 0x06, 
  0xE0, 0x03, 0xC0, 0x01, 0xC0, 0x01, 0xE0, 0x03, 0xB0, 0x06, 0x98, 0x0D, 
  0x80, 0x07, 0x80, 0x03, 0x80, 0x00, 0x80, 0x00, };
