#define brightness-display-symbolic_width 16
#define brightness-display-symbolic_height 16
static char brightness-display-symbolic_bits[] = {
  0x00, 0x00, 0x00, 0x00, 0x80, 0x01, 0x80, 0x01, 0x30, 0x08, 0xC0, 0x03, 
  0x60, 0x06, 0x24, 0x36, 0x2C, 0x34, 0x60, 0x06, 0xC0, 0x0B, 0x30, 0x08, 
  0x80, 0x01, 0x80, 0x01, 0x00, 0x00, 0x00, 0x00, };
