#define call-missed-symbolic_width 16
#define call-missed-symbolic_height 16
static char call-missed-symbolic_bits[] = {
  0x00, 0x00, 0x00, 0x00, 0x00, 0x1E, 0x00, 0x38, 0x10, 0x28, 0x20, 0x1C, 
  0xA0, 0x21, 0x40, 0x03, 0x80, 0x00, 0x00, 0x00, 0x00, 0x00, 0xF8, 0x1F, 
  0xFC, 0x7F, 0x7E, 0x7C, 0x1E, 0x78, 0x1E, 0x78, };
