#define channel-insecure-symbolic_width 16
#define channel-insecure-symbolic_height 16
static char channel-insecure-symbolic_bits[] = {
  0xE0, 0x00, 0x78, 0x01, 0x0C, 0x03, 0x08, 0x00, 0x08, 0xFF, 0x0C, 0xE7, 
  0x00, 0xE7, 0x00, 0xE7, 0x00, 0xE7, 0x74, 0xFF, 0x6E, 0xE7, 0x76, 0xFF, 
  0x5A, 0x00, 0xDA, 0x07, 0xFE, 0x06, 0x00, 0x00, };
