#define changes-prevent-symbolic_width 16
#define changes-prevent-symbolic_height 16
static char changes-prevent-symbolic_bits[] = {
  0x00, 0x00, 0xE0, 0x07, 0xE0, 0x07, 0x60, 0x06, 0x60, 0x06, 0x60, 0x06, 
  0xF8, 0x1F, 0xF8, 0x1F, 0xF8, 0x1F, 0xF8, 0x1F, 0xF8, 0x1F, 0xF8, 0x1F, 
  0xF8, 0x1F, 0xF8, 0x1F, 0x00, 0x00, 0x00, 0x00, };
