#define channel-secure-symbolic_width 16
#define channel-secure-symbolic_height 16
static char channel-secure-symbolic_bits[] = {
  0x00, 0x00, 0x00, 0x00, 0xC0, 0x07, 0xF0, 0x07, 0x30, 0x0C, 0x30, 0x0C, 
  0x30, 0x0C, 0xF8, 0x1F, 0xF8, 0x1F, 0xF8, 0x1F, 0xF8, 0x1F, 0xF8, 0x1F, 
  0xF8, 0x1F, 0x00, 0x00, 0x00, 0x00, 0x00, 0x00, };
