#define checkbox-mixed-symbolic_width 16
#define checkbox-mixed-symbolic_height 16
static char checkbox-mixed-symbolic_bits[] = {
  0x00, 0x00, 0xFC, 0x3F, 0x02, 0x40, 0x02, 0x40, 0x02, 0x40, 0x02, 0x40, 
  0xF2, 0x4F, 0xFA, 0x5F, 0xFA, 0x5F, 0xFA, 0x4F, 0x02, 0x40, 0x02, 0x40, 
  0x02, 0x40, 0x02, 0x40, 0xFC, 0x3F, 0x00, 0x00, };
