#define checkbox-checked-symbolic_width 16
#define checkbox-checked-symbolic_height 16
static char checkbox-checked-symbolic_bits[] = {
  0x00, 0x00, 0xFC, 0x3F, 0x02, 0x40, 0x02, 0x60, 0x02, 0x70, 0x02, 0x78, 
  0x02, 0x7C, 0xE2, 0x7E, 0xE2, 0x5F, 0xE2, 0x4F, 0xC2, 0x47, 0x82, 0x43, 
  0x02, 0x40, 0x02, 0x60, 0xFC, 0x3F, 0x00, 0x00, };
