#define computer-fail-symbolic_width 16
#define computer-fail-symbolic_height 16
static char computer-fail-symbolic_bits[] = {
  0x00, 0x00, 0xFE, 0x7F, 0xFF, 0xFF, 0x03, 0xC0, 0x03, 0xC0, 0x33, 0xCC, 
  0x33, 0xCC, 0x03, 0xC0, 0xC3, 0xC3, 0x23, 0xC4, 0x13, 0xC8, 0x03, 0xC0, 
  0xFF, 0xFF, 0xFE, 0x7F, 0xE0, 0x07, 0xE0, 0x07, };
