#define dialog-question-symbolic_width 16
#define dialog-question-symbolic_height 16
static char dialog-question-symbolic_bits[] = {
  0x00, 0x00, 0xE0, 0x07, 0xF8, 0x1F, 0x3C, 0x3C, 0x9E, 0x79, 0xFF, 0xF9, 
  0xFF, 0xFC, 0x7F, 0xFE, 0x7F, 0xFF, 0xFF, 0xFF, 0x7E, 0x7E, 0x7C, 0x3F, 
  0xF8, 0x1F, 0xF0, 0x07, 0x18, 0x00, 0x04, 0x00, };
