#define dialog-information-symbolic_width 16
#define dialog-information-symbolic_height 16
static char dialog-information-symbolic_bits[] = {
  0x00, 0x00, 0xE0, 0x07, 0xF8, 0x1F, 0xFC, 0x3E, 0x7E, 0x7E, 0xFF, 0xFF, 
  0x3F, 0xFE, 0x7F, 0xFE, 0x7F, 0xFE, 0x7F, 0xFE, 0x7E, 0x7F, 0x7C, 0x3E, 
  0xF8, 0x1F, 0xF0, 0x07, 0x18, 0x00, 0x08, 0x00, };
