#define dialog-password-symbolic_width 16
#define dialog-password-symbolic_height 16
static char dialog-password-symbolic_bits[] = {
  0xC0, 0x03, 0xE0, 0x07, 0x70, 0x0E, 0x70, 0x0E, 0xF0, 0x0F, 0xF0, 0x0F, 
  0xE0, 0x07, 0xC0, 0x03, 0xC0, 0x03, 0xC0, 0x03, 0xC0, 0x03, 0xC0, 0x01, 
  0xC0, 0x03, 0xC0, 0x03, 0xC0, 0x01, 0x00, 0x01, };
