#define dialog-error-symbolic_width 16
#define dialog-error-symbolic_height 16
static char dialog-error-symbolic_bits[] = {
  0x00, 0x00, 0xE0, 0x07, 0xF8, 0x1F, 0xFC, 0x3F, 0x9E, 0x79, 0x0F, 0xF0, 
  0x1F, 0xF8, 0x3F, 0xFC, 0x1F, 0xF8, 0x0F, 0xF0, 0x9E, 0x79, 0xFC, 0x3F, 
  0xF8, 0x1F, 0xF0, 0x07, 0x18, 0x00, 0x08, 0x00, };
