#define display-brightness-symbolic_width 16
#define display-brightness-symbolic_height 16
static char display-brightness-symbolic_bits[] = {
  0x00, 0x00, 0x60, 0x06, 0xE8, 0x27, 0xF8, 0x1C, 0xF8, 0x10, 0xFC, 0x70, 
  0xFF, 0x60, 0xFC, 0x20, 0xFC, 0x20, 0xFE, 0x60, 0xFD, 0x70, 0xF8, 0x10, 
  0xF8, 0x1C, 0xE8, 0x27, 0x40, 0x06, 0x20, 0x00, };
