#define folder-visiting-symbolic_width 16
#define folder-visiting-symbolic_height 16
static char folder-visiting-symbolic_bits[] = {
  0x00, 0x00, 0x7F, 0x00, 0xFF, 0x00, 0xC3, 0x7F, 0xC3, 0xFF, 0x03, 0xC0, 
  0x03, 0xC0, 0x03, 0xC0, 0x03, 0xC0, 0x03, 0xC0, 0x03, 0xC0, 0x03, 0xC0, 
  0x03, 0xC0, 0xFF, 0xFF, 0xFE, 0x7F, 0x00, 0x00, };
