#define folder-open-symbolic_width 16
#define folder-open-symbolic_height 16
static char folder-open-symbolic_bits[] = {
  0x00, 0x00, 0x3F, 0x00, 0x3F, 0x00, 0xFF, 0x3F, 0xFF, 0x3F, 0x0F, 0x00, 
  0xEF, 0xFF, 0xEF, 0xFF, 0xF7, 0xFF, 0xF7, 0x7F, 0xF7, 0x7F, 0xF7, 0x7F, 
  0xFB, 0x7F, 0xFB, 0x3F, 0xFF, 0x3F, 0xFF, 0x3F, };
