#define folder-drag-accept-symbolic_width 16
#define folder-drag-accept-symbolic_height 16
static char folder-drag-accept-symbolic_bits[] = {
  0x00, 0x00, 0x3F, 0x00, 0x3F, 0x00, 0xFF, 0x3F, 0xFF, 0x3F, 0xFF, 0x3F, 
  0xFF, 0xFF, 0xE7, 0xE7, 0xE7, 0xE3, 0x87, 0xF1, 0x8F, 0xF1, 0xC7, 0xE3, 
  0xE7, 0xE7, 0xFF, 0xFF, 0xFF, 0xFF, 0xFF, 0xFF, };
