#define mail-replied-symbolic_width 16
#define mail-replied-symbolic_height 16
static char mail-replied-symbolic_bits[] = {
  0x00, 0x00, 0x00, 0x00, 0x40, 0x00, 0x70, 0x00, 0xF8, 0x0F, 0xFE, 0x1F, 
  0xFE, 0x3F, 0xF8, 0x3F, 0x70, 0x3C, 0x60, 0x70, 0x00, 0x30, 0x00, 0x30, 
  0x00, 0x18, 0x00, 0x00, 0x00, 0x00, 0x00, 0x00, };
