#define mail-read-symbolic_width 16
#define mail-read-symbolic_height 16
static char mail-read-symbolic_bits[] = {
  0x00, 0x00, 0xE0, 0x07, 0xF0, 0x0F, 0x38, 0x1C, 0x1C, 0x38, 0x0E, 0x70, 
  0x06, 0x60, 0x06, 0x60, 0x06, 0x60, 0x06, 0x60, 0x0E, 0x70, 0x0C, 0x30, 
  0x38, 0x1C, 0xF0, 0x0F, 0xE0, 0x03, 0x00, 0x00, };
