#define mail-attachment-symbolic_width 16
#define mail-attachment-symbolic_height 16
static char mail-attachment-symbolic_bits[] = {
  0x00, 0x00, 0x00, 0x3F, 0x80, 0x35, 0xE0, 0x20, 0x60, 0x20, 0xB8, 0x33, 
  0xF8, 0x23, 0x64, 0x36, 0x38, 0x1B, 0xD8, 0x0D, 0xCC, 0x06, 0x0C, 0x03, 
  0x98, 0x01, 0xF0, 0x00, 0x60, 0x00, 0x00, 0x00, };
