#define media-playlist-repeat-one-symbolic_width 16
#define media-playlist-repeat-one-symbolic_height 16
static char media-playlist-repeat-one-symbolic_bits[] = {
  0x00, 0x00, 0x40, 0x00, 0xC0, 0x00, 0xF8, 0x19, 0xFC, 0x79, 0xC6, 0x60, 
  0x47, 0xC0, 0x03, 0x9E, 0x03, 0x7F, 0x83, 0xF7, 0x8E, 0xF3, 0x9E, 0xF7, 
  0x98, 0xF7, 0x00, 0xE3, 0x00, 0x7F, 0x00, 0x1E, };
