#define media-playlist-shuffle-symbolic_width 16
#define media-playlist-shuffle-symbolic_height 16
static char media-playlist-shuffle-symbolic_bits[] = {
  0x00, 0x00, 0x00, 0x00, 0x00, 0x08, 0x00, 0x18, 0x00, 0x3F, 0xCE, 0x7F, 
  0xEE, 0x18, 0x70, 0x08, 0x38, 0x08, 0xBE, 0x19, 0xCE, 0x3F, 0x00, 0x7F, 
  0x00, 0x18, 0x00, 0x08, 0x00, 0x00, 0x00, 0x00, };
