#define media-playlist-shuffle-symbolic-rtl_width 16
#define media-playlist-shuffle-symbolic-rtl_height 16
static char media-playlist-shuffle-symbolic-rtl_bits[] = {
  0x00, 0x00, 0x18, 0x00, 0x1C, 0x00, 0xFE, 0x7C, 0xFE, 0x7E, 0x1C, 0x06, 
  0x18, 0x06, 0x00, 0x06, 0x00, 0x06, 0x18, 0x06, 0x1C, 0x06, 0xFE, 0x77, 
  0xFE, 0x73, 0x1C, 0x00, 0x18, 0x00, 0x00, 0x00, };
