#define media-playlist-consecutive-symbolic_width 16
#define media-playlist-consecutive-symbolic_height 16
static char media-playlist-consecutive-symbolic_bits[] = {
  0x00, 0x00, 0x00, 0x00, 0x00, 0x00, 0x00, 0x00, 0x00, 0x00, 0x00, 0x18, 
  0x00, 0x38, 0xFE, 0x7F, 0xFE, 0x7F, 0x00, 0x38, 0x00, 0x18, 0x00, 0x00, 
  0x00, 0x00, 0x00, 0x00, 0x00, 0x00, 0x00, 0x00, };
