#define media-playlist-repeat-song-rtl-symbolic_width 16
#define media-playlist-repeat-song-rtl-symbolic_height 16
static char media-playlist-repeat-song-rtl-symbolic_bits[] = {
  0x00, 0x3C, 0x00, 0x7E, 0x00, 0xE7, 0x7C, 0xE3, 0x7E, 0xE7, 0x06, 0xE7, 
  0x06, 0x7E, 0x06, 0x3C, 0x06, 0x00, 0x66, 0x60, 0xE6, 0x60, 0xFE, 0x79, 
  0xFC, 0x39, 0xE0, 0x00, 0x60, 0x00, 0x00, 0x00, };
