#define media-playlist-repeat-symbolic_width 16
#define media-playlist-repeat-symbolic_height 16
static char media-playlist-repeat-symbolic_bits[] = {
  0x00, 0x00, 0x00, 0x00, 0x00, 0x00, 0xFC, 0x3F, 0xFE, 0x7F, 0x0E, 0x60, 
  0x06, 0x60, 0x06, 0x60, 0x06, 0x60, 0x06, 0x64, 0x0E, 0x66, 0x9E, 0x7F, 
  0x1C, 0x3F, 0x00, 0x06, 0x00, 0x04, 0x00, 0x00, };
