#define media-playlist-no-repeat-symbolic_width 16
#define media-playlist-no-repeat-symbolic_height 16
static char media-playlist-no-repeat-symbolic_bits[] = {
  0x00, 0x00, 0x40, 0x00, 0xC0, 0x00, 0xF8, 0x19, 0xFC, 0x79, 0xC6, 0x60, 
  0x47, 0xE0, 0x03, 0xC0, 0x03, 0xC0, 0x03, 0xC2, 0x0E, 0x73, 0x9E, 0x7F, 
  0x98, 0x1F, 0x00, 0x03, 0x00, 0x02, 0x00, 0x00, };
