#define media-playlist-no-shuffle-symbolic_width 16
#define media-playlist-no-shuffle-symbolic_height 16
static char media-playlist-no-shuffle-symbolic_bits[] = {
  0x00, 0x00, 0x00, 0x00, 0x00, 0x08, 0x00, 0x18, 0xFE, 0x3F, 0xFE, 0x7F, 
  0x00, 0x18, 0x00, 0x08, 0x00, 0x08, 0x00, 0x18, 0xFE, 0x3F, 0xFE, 0x7F, 
  0x00, 0x18, 0x00, 0x08, 0x00, 0x00, 0x00, 0x00, };
