#define media-playlist-repeat-song-symbolic_width 16
#define media-playlist-repeat-song-symbolic_height 16
static char media-playlist-repeat-song-symbolic_bits[] = {
  0x3C, 0x00, 0x7E, 0x00, 0xE7, 0x00, 0xE3, 0x3E, 0xE7, 0x7E, 0xE7, 0x60, 
  0x7E, 0x60, 0x3C, 0x60, 0x00, 0x60, 0x06, 0x66, 0x06, 0x67, 0x9E, 0x7F, 
  0x9C, 0x3F, 0x00, 0x07, 0x00, 0x06, 0x00, 0x00, };
