#define media-playlist-consecutive-symbolic-rtl_width 16
#define media-playlist-consecutive-symbolic-rtl_height 16
static char media-playlist-consecutive-symbolic-rtl_bits[] = {
  0x00, 0x00, 0x00, 0x00, 0x00, 0x00, 0x00, 0x00, 0x00, 0x00, 0x18, 0x00, 
  0x1C, 0x00, 0xFE, 0x7F, 0xFE, 0x7F, 0x1C, 0x00, 0x18, 0x00, 0x00, 0x00, 
  0x00, 0x00, 0x00, 0x00, 0x00, 0x00, 0x00, 0x00, };
