#define microphone-sensitivity-medium-symbolic_width 16
#define microphone-sensitivity-medium-symbolic_height 16
static char microphone-sensitivity-medium-symbolic_bits[] = {
  0x00, 0x00, 0x70, 0x20, 0xF8, 0x08, 0xF8, 0x40, 0xF8, 0x20, 0xFA, 0x02, 
  0xFA, 0x32, 0xFA, 0x7A, 0xFA, 0x7A, 0xFA, 0x32, 0x74, 0x01, 0x8C, 0x31, 
  0xF8, 0x78, 0x70, 0x78, 0xFE, 0x33, 0xFE, 0x03, };
