#define microphone-sensitivity-muted-symbolic_width 16
#define microphone-sensitivity-muted-symbolic_height 16
static char microphone-sensitivity-muted-symbolic_bits[] = {
  0x00, 0x00, 0x70, 0x20, 0xF8, 0x08, 0xF8, 0x40, 0xF8, 0x00, 0xFA, 0x02, 
  0xFA, 0x12, 0xFA, 0x42, 0xFA, 0x42, 0xFA, 0x12, 0x70, 0x01, 0x8C, 0xD9, 
  0xF0, 0xF8, 0x70, 0x70, 0xFE, 0xFB, 0xFE, 0xDB, };
