#define microphone-sensitivity-high-symbolic_width 16
#define microphone-sensitivity-high-symbolic_height 16
static char microphone-sensitivity-high-symbolic_bits[] = {
  0x00, 0x00, 0x70, 0x30, 0xF8, 0x78, 0xF8, 0x78, 0xF8, 0x30, 0xFA, 0x02, 
  0xFA, 0x32, 0xFA, 0x7A, 0xFA, 0x7A, 0xFA, 0x3A, 0x74, 0x01, 0x8C, 0x31, 
  0xF8, 0x78, 0x70, 0x78, 0xFE, 0x33, 0xFE, 0x03, };
