#define network-wireless-signal-ok-symbolic_width 16
#define network-wireless-signal-ok-symbolic_height 16
static char network-wireless-signal-ok-symbolic_bits[] = {
  0x00, 0x00, 0x00, 0x00, 0x00, 0x02, 0x40, 0x00, 0xA4, 0x08, 0x00, 0x63, 
  0xF0, 0x07, 0xFC, 0x1F, 0xF8, 0x1F, 0xF0, 0x0F, 0xE0, 0x07, 0xE0, 0x07, 
  0x80, 0x01, 0x80, 0x01, 0x00, 0x00, 0x00, 0x00, };
