#define network-cellular-4g-symbolic_width 16
#define network-cellular-4g-symbolic_height 16
static char network-cellular-4g-symbolic_bits[] = {
  0xFE, 0x7F, 0xFF, 0xFF, 0xFF, 0xFF, 0xF3, 0xE1, 0xF3, 0xC0, 0xF3, 0xCC, 
  0x93, 0xFC, 0x83, 0xC4, 0x87, 0xC4, 0x9F, 0xCC, 0x9F, 0xCC, 0x9F, 0xC0, 
  0x9F, 0xE1, 0xFF, 0xFF, 0xFF, 0xFF, 0xFE, 0x7F, };
