#define network-transmit-symbolic_width 16
#define network-transmit-symbolic_height 16
static char network-transmit-symbolic_bits[] = {
  0x00, 0x00, 0x00, 0x0C, 0x00, 0x1C, 0xC0, 0x3F, 0xC0, 0x7F, 0xC0, 0x7F, 
  0xC0, 0x3F, 0x10, 0x3C, 0x38, 0x0C, 0xC0, 0x03, 0x7E, 0x03, 0x58, 0x02, 
  0xEC, 0x02, 0x30, 0x00, 0x20, 0x00, 0x00, 0x00, };
