#define network-cellular-signal-excellent-symbolic_width 16
#define network-cellular-signal-excellent-symbolic_height 16
static char network-cellular-signal-excellent-symbolic_bits[] = {
  0x00, 0x70, 0x00, 0x70, 0x00, 0x70, 0x00, 0x77, 0x00, 0x77, 0x00, 0x77, 
  0x70, 0x77, 0x70, 0x77, 0x70, 0x77, 0x77, 0x77, 0x77, 0x77, 0x77, 0x77, 
  0x77, 0x77, 0x77, 0x77, 0x77, 0x77, 0x00, 0x00, };
