#define network-no-route-symbolic_width 16
#define network-no-route-symbolic_height 16
static char network-no-route-symbolic_bits[] = {
  0x00, 0x00, 0x00, 0x00, 0x80, 0x00, 0x20, 0x06, 0x08, 0x00, 0xC4, 0x63, 
  0xE0, 0x07, 0x60, 0x06, 0x00, 0x07, 0x00, 0x07, 0x80, 0x03, 0x80, 0x01, 
  0x00, 0x00, 0x80, 0x01, 0x80, 0x01, 0x00, 0x00, };
