#define network-cellular-3g-symbolic_width 16
#define network-cellular-3g-symbolic_height 16
static char network-cellular-3g-symbolic_bits[] = {
  0xFE, 0x7F, 0xFF, 0xFF, 0xFF, 0xFF, 0x83, 0xE1, 0x83, 0xC0, 0xCF, 0xCC, 
  0xCF, 0xFC, 0xC7, 0xC4, 0x87, 0xC4, 0x9F, 0xCC, 0x9F, 0xCC, 0x83, 0xC0, 
  0xC3, 0xE1, 0xFF, 0xFF, 0xFF, 0xFF, 0xFE, 0x7F, };
