#define network-wired-offline-symbolic_width 16
#define network-wired-offline-symbolic_height 16
static char network-wired-offline-symbolic_bits[] = {
  0x00, 0x00, 0x00, 0x00, 0x10, 0x12, 0x44, 0x08, 0x00, 0x40, 0x00, 0x00, 
  0x04, 0x20, 0x00, 0x00, 0x02, 0x00, 0x00, 0x00, 0x00, 0x00, 0x04, 0xD8, 
  0xA0, 0xF8, 0x00, 0x71, 0x00, 0xF8, 0x00, 0xD8, };
