#define network-wireless-no-route-symbolic_width 16
#define network-wireless-no-route-symbolic_height 16
static char network-wireless-no-route-symbolic_bits[] = {
  0x00, 0x00, 0x00, 0x00, 0xE0, 0x07, 0xF8, 0x1F, 0x3E, 0x7E, 0xFF, 0xFC, 
  0xFE, 0x7E, 0x7C, 0x3F, 0xF8, 0x1F, 0x70, 0x0E, 0xE0, 0x0F, 0xC0, 0x03, 
  0x80, 0x01, 0x80, 0x01, 0x00, 0x00, 0x00, 0x00, };
