#define network-wireless-signal-good-symbolic_width 16
#define network-wireless-signal-good-symbolic_height 16
static char network-wireless-signal-good-symbolic_bits[] = {
  0x00, 0x00, 0x00, 0x00, 0x00, 0x00, 0x40, 0x0A, 0xA4, 0x00, 0xE0, 0x5F, 
  0xFC, 0x1F, 0xFC, 0x3F, 0xF8, 0x1F, 0xF0, 0x0F, 0xE0, 0x07, 0xE0, 0x07, 
  0x80, 0x01, 0x80, 0x01, 0x00, 0x00, 0x00, 0x00, };
