#define network-idle-symbolic_width 16
#define network-idle-symbolic_height 16
static char network-idle-symbolic_bits[] = {
  0x00, 0x00, 0x00, 0x00, 0xFC, 0x3F, 0xFE, 0x7F, 0x06, 0x60, 0x06, 0x60, 
  0x06, 0x60, 0x06, 0x60, 0x06, 0x60, 0x06, 0x60, 0x06, 0x60, 0x3E, 0x7C, 
  0xFC, 0x3F, 0xE0, 0x07, 0x00, 0x00, 0x00, 0x00, };
