#define network-wireless-signal-weak-symbolic_width 16
#define network-wireless-signal-weak-symbolic_height 16
static char network-wireless-signal-weak-symbolic_bits[] = {
  0x00, 0x00, 0x00, 0x00, 0x00, 0x04, 0xA0, 0x00, 0x10, 0x0A, 0x54, 0x20, 
  0x20, 0x45, 0x88, 0x11, 0x80, 0x04, 0x30, 0x02, 0xC0, 0x07, 0xC0, 0x03, 
  0x80, 0x01, 0x80, 0x01, 0x00, 0x00, 0x00, 0x00, };
