#define network-cellular-edge-symbolic_width 16
#define network-cellular-edge-symbolic_height 16
static char network-cellular-edge-symbolic_bits[] = {
  0xFE, 0x7F, 0xFF, 0xFF, 0xFF, 0xFF, 0x1F, 0xF0, 0x0F, 0xF0, 0xCF, 0xFF, 
  0xCF, 0xFF, 0x0F, 0xF0, 0x0F, 0xF0, 0xCF, 0xFF, 0xCF, 0xFF, 0x0F, 0xF0, 
  0x1F, 0xF0, 0xFF, 0xFF, 0xFF, 0xFF, 0xFE, 0x7F, };
