#define network-cellular-acquiring-symbolic_width 16
#define network-cellular-acquiring-symbolic_height 16
static char network-cellular-acquiring-symbolic_bits[] = {
  0x00, 0x00, 0x00, 0x20, 0x00, 0x60, 0x00, 0x00, 0x00, 0x30, 0x00, 0x03, 
  0x00, 0x20, 0x00, 0x00, 0xDC, 0x1D, 0xDC, 0x1D, 0xD8, 0x49, 0x00, 0x00, 
  0x23, 0x40, 0x20, 0x13, 0x04, 0x00, 0x00, 0x00, };
