#define network-cellular-no-route-symbolic_width 16
#define network-cellular-no-route-symbolic_height 16
static char network-cellular-no-route-symbolic_bits[] = {
  0x00, 0x20, 0x00, 0x00, 0x00, 0x20, 0x00, 0x00, 0x00, 0x30, 0xC0, 0x03, 
  0xC0, 0x27, 0x60, 0x06, 0x00, 0x06, 0x00, 0x13, 0xA6, 0x53, 0x80, 0x01, 
  0x04, 0x40, 0x91, 0x11, 0x80, 0x01, 0x00, 0x00, };
