#define network-vpn-error-symbolic_width 16
#define network-vpn-error-symbolic_height 16
static char network-vpn-error-symbolic_bits[] = {
  0x00, 0x00, 0x00, 0x00, 0x00, 0x00, 0x10, 0x00, 0x08, 0x00, 0xA8, 0x00, 
  0x03, 0x34, 0x40, 0x32, 0x06, 0x32, 0xC0, 0x30, 0x18, 0x30, 0x10, 0x30, 
  0x00, 0x00, 0x00, 0x30, 0x00, 0x30, 0x00, 0x00, };
