#define network-vpn-symbolic_width 16
#define network-vpn-symbolic_height 16
static char network-vpn-symbolic_bits[] = {
  0x00, 0x00, 0x00, 0x00, 0x00, 0x00, 0x00, 0x00, 0x38, 0x00, 0xFE, 0x00, 
  0xFE, 0x00, 0xEF, 0xFF, 0xC7, 0xFF, 0xEF, 0xFF, 0xFE, 0x71, 0xFE, 0x70, 
  0x3C, 0x00, 0x00, 0x00, 0x00, 0x00, 0x00, 0x00, };
