#define network-error-symbolic_width 16
#define network-error-symbolic_height 16
static char network-error-symbolic_bits[] = {
  0x00, 0x00, 0x00, 0x00, 0x50, 0x10, 0x04, 0x0A, 0x00, 0x40, 0x00, 0x00, 
  0x04, 0x00, 0x00, 0x20, 0x00, 0x00, 0x02, 0x38, 0x00, 0x7C, 0x04, 0xFE, 
  0x20, 0x82, 0x80, 0xFE, 0x00, 0x7C, 0x00, 0x38, };
