#define network-vpn-disconnected-symbolic_width 16
#define network-vpn-disconnected-symbolic_height 16
static char network-vpn-disconnected-symbolic_bits[] = {
  0x00, 0x00, 0x00, 0x00, 0x00, 0x00, 0x00, 0x00, 0x48, 0x00, 0x20, 0x00, 
  0x80, 0x04, 0x05, 0x51, 0x80, 0x80, 0x12, 0x10, 0x08, 0x00, 0x10, 0xD8, 
  0x00, 0xF8, 0x00, 0x70, 0x00, 0xF8, 0x00, 0xD8, };
