#define network-cellular-connected-symbolic_width 16
#define network-cellular-connected-symbolic_height 16
static char network-cellular-connected-symbolic_bits[] = {
  0x00, 0x00, 0x60, 0x00, 0x60, 0x00, 0x60, 0x00, 0xE0, 0x07, 0x23, 0xC4, 
  0x27, 0xE4, 0x2E, 0x74, 0xEE, 0x77, 0xA7, 0xE6, 0x63, 0xC5, 0xA0, 0x06, 
  0x60, 0x05, 0xE0, 0x07, 0x00, 0x00, 0x00, 0x00, };
