#define network-receive-symbolic_width 16
#define network-receive-symbolic_height 16
static char network-receive-symbolic_bits[] = {
  0x00, 0x00, 0x00, 0x04, 0x00, 0x0C, 0xC0, 0x35, 0x40, 0x39, 0x40, 0x6F, 
  0xC0, 0x26, 0x30, 0x18, 0x38, 0x0C, 0xFC, 0x03, 0xFE, 0x03, 0xFE, 0x03, 
  0xFC, 0x03, 0x38, 0x00, 0x30, 0x00, 0x00, 0x00, };
