#define network-cellular-hspa-symbolic_width 16
#define network-cellular-hspa-symbolic_height 16
static char network-cellular-hspa-symbolic_bits[] = {
  0xFE, 0x7F, 0xFF, 0xFF, 0xFF, 0xFF, 0xCF, 0xF3, 0xCF, 0xF3, 0xCF, 0xF3, 
  0xCF, 0xF3, 0x0F, 0xF0, 0x0F, 0xF0, 0xCF, 0xF3, 0xCF, 0xF3, 0xCF, 0xF3, 
  0xCF, 0xF3, 0xFF, 0xFF, 0xFF, 0xFF, 0xFE, 0x7F, };
