#define network-cellular-offline-symbolic_width 16
#define network-cellular-offline-symbolic_height 16
static char network-cellular-offline-symbolic_bits[] = {
  0x00, 0x40, 0x00, 0x00, 0x00, 0x10, 0x00, 0x00, 0x00, 0x02, 0x00, 0x20, 
  0x40, 0x12, 0x00, 0x00, 0x20, 0x22, 0x00, 0x00, 0x20, 0x00, 0x02, 0xD9, 
  0x10, 0xF8, 0x02, 0x70, 0x00, 0xF9, 0x00, 0xD8, };
