#define network-wired-no-route-symbolic_width 16
#define network-wired-no-route-symbolic_height 16
static char network-wired-no-route-symbolic_bits[] = {
  0x00, 0x00, 0x00, 0x00, 0xFC, 0x3F, 0xFE, 0x7F, 0x86, 0x67, 0x46, 0x6C, 
  0x06, 0x64, 0x06, 0x63, 0x06, 0x61, 0x06, 0x60, 0x06, 0x61, 0x1E, 0x7C, 
  0xFC, 0x3F, 0xE0, 0x07, 0x00, 0x00, 0x00, 0x00, };
