#define network-wireless-acquiring-symbolic_width 16
#define network-wireless-acquiring-symbolic_height 16
static char network-wireless-acquiring-symbolic_bits[] = {
  0x00, 0x00, 0x00, 0x00, 0x00, 0x04, 0x50, 0x00, 0x90, 0x08, 0x94, 0x23, 
  0x00, 0x44, 0x68, 0x12, 0x60, 0x06, 0x00, 0x00, 0xA0, 0x03, 0x00, 0x00, 
  0x00, 0x00, 0xB0, 0x0D, 0xB0, 0x0D, 0x00, 0x00, };
