#define network-transmit-receive-symbolic_width 16
#define network-transmit-receive-symbolic_height 16
static char network-transmit-receive-symbolic_bits[] = {
  0x00, 0x00, 0x00, 0x0C, 0x00, 0x1C, 0xC0, 0x3F, 0xC0, 0x7F, 0xC0, 0x7F, 
  0xC0, 0x3F, 0x30, 0x1C, 0x38, 0x0C, 0xFC, 0x03, 0xFE, 0x03, 0xFE, 0x03, 
  0xFC, 0x03, 0x38, 0x00, 0x30, 0x00, 0x00, 0x00, };
