#define network-vpn-acquiring-symbolic_width 16
#define network-vpn-acquiring-symbolic_height 16
static char network-vpn-acquiring-symbolic_bits[] = {
  0x00, 0x00, 0x00, 0x00, 0x00, 0x00, 0x00, 0x00, 0x10, 0x00, 0x00, 0x00, 
  0x8C, 0x31, 0xDE, 0x7B, 0xDE, 0x7B, 0x8C, 0x31, 0x00, 0x00, 0xA4, 0x20, 
  0x00, 0x00, 0x00, 0x00, 0x00, 0x00, 0x00, 0x00, };
