#define network-wireless-connected-symbolic_width 16
#define network-wireless-connected-symbolic_height 16
static char network-wireless-connected-symbolic_bits[] = {
  0x00, 0x00, 0x00, 0x00, 0xE0, 0x07, 0xF8, 0x1F, 0x3E, 0x78, 0x07, 0xF0, 
  0x0E, 0x70, 0x1C, 0x38, 0x38, 0x1C, 0x30, 0x0C, 0xE0, 0x0F, 0xE0, 0x03, 
  0x80, 0x01, 0x80, 0x01, 0x00, 0x00, 0x00, 0x00, };
