#define network-wireless-signal-none-symbolic_width 16
#define network-wireless-signal-none-symbolic_height 16
static char network-wireless-signal-none-symbolic_bits[] = {
  0x00, 0x00, 0x00, 0x00, 0xE0, 0x07, 0xF8, 0x1F, 0xFE, 0x7F, 0xFF, 0xFF, 
  0xFE, 0x7F, 0xFC, 0x3F, 0xF8, 0x1F, 0xF0, 0x0F, 0xE0, 0x0F, 0xC0, 0x03, 
  0x80, 0x01, 0x80, 0x01, 0x00, 0x00, 0x00, 0x00, };
