#define network-cellular-signal-ok-symbolic_width 16
#define network-cellular-signal-ok-symbolic_height 16
static char network-cellular-signal-ok-symbolic_bits[] = {
  0x00, 0x40, 0x00, 0x00, 0x00, 0x10, 0x00, 0x00, 0x00, 0x01, 0x00, 0x20, 
  0x70, 0x04, 0x70, 0x22, 0x70, 0x02, 0x77, 0x20, 0x77, 0x20, 0x77, 0x05, 
  0x77, 0x02, 0x77, 0x10, 0x77, 0x42, 0x00, 0x00, };
