#define network-cellular-signal-good-symbolic_width 16
#define network-cellular-signal-good-symbolic_height 16
static char network-cellular-signal-good-symbolic_bits[] = {
  0x00, 0x20, 0x00, 0x00, 0x00, 0x00, 0x00, 0x57, 0x00, 0x07, 0x00, 0x27, 
  0x70, 0x57, 0x70, 0x07, 0x70, 0x27, 0x77, 0x07, 0x77, 0x07, 0x77, 0x57, 
  0x77, 0x07, 0x77, 0x27, 0x77, 0x47, 0x00, 0x00, };
