#define network-cellular-signal-weak-symbolic_width 16
#define network-cellular-signal-weak-symbolic_height 16
static char network-cellular-signal-weak-symbolic_bits[] = {
  0x00, 0x40, 0x00, 0x00, 0x00, 0x00, 0x00, 0x10, 0x00, 0x21, 0x00, 0x00, 
  0x40, 0x10, 0x00, 0x02, 0x20, 0x00, 0x07, 0x22, 0x07, 0x12, 0x27, 0x00, 
  0x17, 0x01, 0x07, 0x20, 0x07, 0x00, 0x00, 0x00, };
