#define network-wired-acquiring-symbolic_width 16
#define network-wired-acquiring-symbolic_height 16
static char network-wired-acquiring-symbolic_bits[] = {
  0x00, 0x00, 0x00, 0x00, 0x40, 0x10, 0x18, 0x06, 0x00, 0x20, 0x00, 0x00, 
  0x02, 0x00, 0xB0, 0x2D, 0xB0, 0x4D, 0x02, 0x00, 0x00, 0x00, 0x04, 0x20, 
  0x20, 0x01, 0x80, 0x04, 0x00, 0x00, 0x00, 0x00, };
