#define network-cellular-signal-acquiring-symbolic_width 16
#define network-cellular-signal-acquiring-symbolic_height 16
static char network-cellular-signal-acquiring-symbolic_bits[] = {
  0x00, 0x30, 0x00, 0x70, 0x00, 0x70, 0x00, 0x77, 0x00, 0x77, 0x00, 0x57, 
  0x30, 0x75, 0x70, 0x77, 0x70, 0x77, 0x77, 0x77, 0x77, 0x77, 0x56, 0x73, 
  0x37, 0x67, 0x20, 0x08, 0xB0, 0x0D, 0xB0, 0x0D, };
