#define network-wireless-offline-symbolic_width 16
#define network-wireless-offline-symbolic_height 16
static char network-wireless-offline-symbolic_bits[] = {
  0x00, 0x00, 0x00, 0x00, 0x00, 0x00, 0x40, 0x04, 0x88, 0x20, 0x10, 0x05, 
  0xA8, 0x08, 0x00, 0x11, 0x00, 0x10, 0x50, 0x01, 0x80, 0x02, 0x00, 0xD8, 
  0x00, 0xF8, 0x00, 0x70, 0x00, 0xF8, 0x00, 0xD8, };
