#define non-starred-symbolic_width 16
#define non-starred-symbolic_height 16
static char non-starred-symbolic_bits[] = {
  0x00, 0x00, 0x00, 0x00, 0x00, 0x01, 0x80, 0x01, 0xC0, 0x03, 0x40, 0x02, 
  0x7C, 0x3C, 0x0C, 0x30, 0x08, 0x10, 0x10, 0x0C, 0x30, 0x08, 0x10, 0x08, 
  0xF0, 0x0F, 0x30, 0x0C, 0x00, 0x00, 0x00, 0x00, };
