#define notification-disabled-symbolic_width 17
#define notification-disabled-symbolic_height 17
static char notification-disabled-symbolic_bits[] = {
  0x00, 0x00, 0x00, 0x00, 0x03, 0x00, 0xC0, 0x07, 0x00, 0xE0, 0x0F, 0x00, 
  0xE0, 0x0F, 0x00, 0xF0, 0x1F, 0x00, 0xF0, 0x1F, 0x00, 0xF0, 0x1F, 0x00, 
  0xF0, 0x1F, 0x00, 0xF0, 0x1F, 0x00, 0xF0, 0x1F, 0x00, 0xF8, 0x3F, 0x00, 
  0xFC, 0x7F, 0x00, 0x00, 0x00, 0x00, 0x80, 0x03, 0x00, 0x00, 0x00, 0x00, 
  0x00, 0x00, 0x00, };
