#define printer-warning-symbolic_width 16
#define printer-warning-symbolic_height 16
static char printer-warning-symbolic_bits[] = {
  0x00, 0x00, 0xD0, 0x0B, 0xF0, 0x0E, 0x00, 0x00, 0x6E, 0x7F, 0xF6, 0x55, 
  0xFA, 0x7D, 0x2E, 0x00, 0x06, 0xFF, 0x74, 0xE7, 0x50, 0xE7, 0x70, 0xE7, 
  0x70, 0xE7, 0x30, 0xFF, 0x00, 0xE7, 0x00, 0xFF, };
