#define printer-error-symbolic_width 16
#define printer-error-symbolic_height 16
static char printer-error-symbolic_bits[] = {
  0x00, 0x00, 0x10, 0x00, 0x00, 0x04, 0x00, 0x00, 0x88, 0x21, 0xA8, 0x0C, 
  0x00, 0x22, 0x54, 0x04, 0x00, 0x00, 0x20, 0x38, 0x00, 0x7C, 0x60, 0xFE, 
  0x20, 0x82, 0x80, 0xFE, 0x00, 0x7C, 0x00, 0x38, };
