#define printer-printing-symbolic_width 16
#define printer-printing-symbolic_height 16
static char printer-printing-symbolic_bits[] = {
  0x00, 0x00, 0xF0, 0x0F, 0xF0, 0x0F, 0x00, 0x00, 0xFE, 0x7F, 0xFE, 0x7F, 
  0xFE, 0x7F, 0xFE, 0x7F, 0x06, 0x60, 0xF6, 0x6F, 0x70, 0x0E, 0x30, 0x0C, 
  0x70, 0x0E, 0xF0, 0x0F, 0x00, 0x00, 0x00, 0x00, };
