#define process-completed-symbolic_width 16
#define process-completed-symbolic_height 16
static char process-completed-symbolic_bits[] = {
  0x00, 0x00, 0xE0, 0x07, 0xF0, 0x0F, 0xF8, 0x1F, 0xFC, 0x37, 0xFE, 0x63, 
  0xFE, 0x71, 0xFE, 0x79, 0x8E, 0x7C, 0x0E, 0x7C, 0x3C, 0x3E, 0x7C, 0x3F, 
  0xF8, 0x3F, 0xF0, 0x0F, 0xC0, 0x03, 0x00, 0x00, };
