#define process-error-symbolic_width 16
#define process-error-symbolic_height 16
static char process-error-symbolic_bits[] = {
  0x00, 0x00, 0xC0, 0x03, 0xF0, 0x0F, 0xF8, 0x1F, 0xFC, 0x3F, 0xFE, 0x3F, 
  0xFE, 0x7F, 0x0E, 0x70, 0x0E, 0x70, 0xFE, 0x7F, 0xFC, 0x3F, 0xFC, 0x3F, 
  0xF8, 0x1F, 0xF0, 0x0F, 0xC0, 0x03, 0x00, 0x00, };
