#define process-working-symbolic_width 16
#define process-working-symbolic_height 16
static char process-working-symbolic_bits[] = {
  0x00, 0x00, 0xE0, 0x07, 0xF0, 0x0F, 0x3C, 0x1C, 0x1C, 0x38, 0x0E, 0x70, 
  0x06, 0x60, 0x06, 0x60, 0x06, 0x00, 0x06, 0x00, 0x0E, 0x00, 0x0C, 0x00, 
  0x38, 0x00, 0xF0, 0x00, 0xE0, 0x00, 0x00, 0x00, };
