#define radio-symbolic_width 16
#define radio-symbolic_height 16
static char radio-symbolic_bits[] = {
  0x00, 0x00, 0xE0, 0x07, 0x30, 0x1C, 0x0C, 0x10, 0x04, 0x20, 0x06, 0x60, 
  0x02, 0x40, 0x02, 0x40, 0x02, 0x40, 0x02, 0x40, 0x06, 0x60, 0x04, 0x20, 
  0x08, 0x10, 0x38, 0x1C, 0xE0, 0x07, 0x00, 0x00, };
