#define radio-checked-symbolic_width 16
#define radio-checked-symbolic_height 16
static char radio-checked-symbolic_bits[] = {
  0x00, 0x00, 0xE0, 0x07, 0x30, 0x0C, 0x08, 0x10, 0x04, 0x20, 0xC6, 0x63, 
  0xE2, 0x47, 0xE2, 0x47, 0xE2, 0x47, 0xE2, 0x47, 0xC6, 0x63, 0x04, 0x20, 
  0x08, 0x30, 0x18, 0x0C, 0xE0, 0x07, 0x00, 0x00, };
