/* XPM */
static char * memory_xpm[] = {
"17 9 2 1",
" 	c None",
".	c #EEE8D5",
".................",
".................",
"...  ..   ..  ...",
" ..  ..   ..  .. ",
" ..  ..   ..  .. ",
"...  ..   ..  ...",
".................",
".. . . . . . . ..",
".. . . . . . . .."};
