#define rotation-locked-symbolic_width 16
#define rotation-locked-symbolic_height 16
static char rotation-locked-symbolic_bits[] = {
  0x00, 0x00, 0xC0, 0x03, 0xF0, 0x0F, 0x38, 0x1C, 0x18, 0x18, 0x00, 0x30, 
  0x00, 0x30, 0x18, 0x30, 0x24, 0x30, 0x24, 0x3A, 0x7E, 0x1E, 0x7E, 0x0E, 
  0x7E, 0x3E, 0x7E, 0x3E, 0x00, 0x00, 0x00, 0x00, };
