#define rotation-allowed-symbolic_width 16
#define rotation-allowed-symbolic_height 16
static char rotation-allowed-symbolic_bits[] = {
  0x00, 0x00, 0xC0, 0x03, 0xF0, 0x0F, 0x38, 0x1C, 0x18, 0x18, 0x0C, 0x30, 
  0x0C, 0x30, 0x0C, 0x30, 0x0C, 0x33, 0x18, 0x3B, 0x38, 0x1F, 0x30, 0x0F, 
  0x00, 0x3F, 0x00, 0x3F, 0x00, 0x00, 0x00, 0x00, };
