#define security-high-symbolic_width 16
#define security-high-symbolic_height 16
static char security-high-symbolic_bits[] = {
  0x80, 0x01, 0xF0, 0x1F, 0x7C, 0x3F, 0x0C, 0x3F, 0x0C, 0x3F, 0x0C, 0x3F, 
  0x0C, 0x3F, 0xFC, 0x30, 0xFC, 0x30, 0xFC, 0x30, 0xFC, 0x38, 0xF8, 0x1C, 
  0xF0, 0x0E, 0xE0, 0x07, 0x80, 0x01, 0x00, 0x00, };
