#define security-low-symbolic_width 16
#define security-low-symbolic_height 16
static char security-low-symbolic_bits[] = {
  0xC0, 0x01, 0xF0, 0x1F, 0x7C, 0x3E, 0x0C, 0x30, 0x0C, 0x30, 0x0C, 0x30, 
  0x0C, 0x30, 0x0C, 0x30, 0x0C, 0x30, 0x0C, 0x30, 0x1C, 0x38, 0x38, 0x1C, 
  0xF0, 0x0E, 0xE0, 0x07, 0x80, 0x01, 0x00, 0x00, };
