#define semi-starred-symbolic_width 16
#define semi-starred-symbolic_height 16
static char semi-starred-symbolic_bits[] = {
  0x00, 0x00, 0x00, 0x00, 0x80, 0x00, 0x80, 0x00, 0xC0, 0x01, 0xC0, 0x00, 
  0xFE, 0x12, 0xFE, 0x04, 0xF8, 0x05, 0xF0, 0x01, 0xF0, 0x02, 0xF0, 0x08, 
  0xF0, 0x04, 0x30, 0x00, 0x18, 0x00, 0x00, 0x00, };
