#define semi-starred-symbolic-rtl_width 16
#define semi-starred-symbolic-rtl_height 16
static char semi-starred-symbolic-rtl_bits[] = {
  0x00, 0x00, 0x00, 0x00, 0x00, 0x01, 0x80, 0x01, 0x00, 0x03, 0x80, 0x03, 
  0x00, 0x7F, 0x64, 0x7F, 0x60, 0x1F, 0x00, 0x0F, 0xA0, 0x0F, 0x80, 0x0F, 
  0x10, 0x0F, 0x00, 0x0C, 0x00, 0x18, 0x00, 0x00, };
