#define software-update-available-symbolic_width 16
#define software-update-available-symbolic_height 16
static char software-update-available-symbolic_bits[] = {
  0x00, 0x00, 0x80, 0x01, 0xC0, 0x03, 0xF8, 0x1F, 0xF8, 0x1F, 0x78, 0x1E, 
  0x3C, 0x3E, 0x3E, 0x7C, 0x7E, 0x7E, 0x7C, 0x3E, 0x78, 0x1E, 0x78, 0x1E, 
  0xF8, 0x1F, 0xC0, 0x03, 0x80, 0x01, 0x00, 0x00, };
