#define software-update-urgent-symbolic_width 16
#define software-update-urgent-symbolic_height 16
static char software-update-urgent-symbolic_bits[] = {
  0x00, 0x00, 0x80, 0x01, 0xC0, 0x03, 0xF8, 0x1F, 0x78, 0x1E, 0x78, 0x1E, 
  0x7C, 0x3E, 0x7E, 0x7E, 0x7E, 0x7E, 0xFC, 0x3F, 0x78, 0x1E, 0x78, 0x1E, 
  0xF8, 0x1F, 0xC0, 0x03, 0x80, 0x01, 0x00, 0x00, };
