#define starred-symbolic_width 16
#define starred-symbolic_height 16
static char starred-symbolic_bits[] = {
  0x00, 0x00, 0x00, 0x01, 0x80, 0x01, 0x80, 0x01, 0xC0, 0x03, 0xC0, 0x03, 
  0xFE, 0x7F, 0xFE, 0x7F, 0xF8, 0x1F, 0xF0, 0x0F, 0xF0, 0x0F, 0xF0, 0x0F, 
  0xF0, 0x0F, 0x30, 0x0C, 0x18, 0x18, 0x00, 0x00, };
