#define system-lock-screen-symbolic_width 16
#define system-lock-screen-symbolic_height 16
static char system-lock-screen-symbolic_bits[] = {
  0x00, 0x00, 0xC0, 0x03, 0xF0, 0x0F, 0x30, 0x0C, 0x30, 0x0C, 0x30, 0x0C, 
  0x30, 0x0C, 0xFC, 0x3F, 0xFC, 0x3F, 0xFC, 0x3F, 0xFC, 0x3F, 0xFC, 0x3F, 
  0xFC, 0x3F, 0xFC, 0x3F, 0x00, 0x00, 0x00, 0x00, };
