#define task-past-due-symbolic_width 16
#define task-past-due-symbolic_height 16
static char task-past-due-symbolic_bits[] = {
  0xE0, 0x03, 0xEE, 0x3B, 0xEE, 0x3B, 0xE6, 0x33, 0x06, 0x30, 0x06, 0x30, 
  0x06, 0x30, 0x06, 0x30, 0x06, 0x30, 0x06, 0x30, 0x06, 0x00, 0x06, 0xD8, 
  0x06, 0xF8, 0x06, 0x70, 0xFE, 0xFB, 0xFE, 0xDB, };
