#define task-due-symbolic_width 16
#define task-due-symbolic_height 16
static char task-due-symbolic_bits[] = {
  0xE0, 0x01, 0xAC, 0x1B, 0xEE, 0x2B, 0xA4, 0x31, 0x06, 0x10, 0x76, 0x37, 
  0xE2, 0x35, 0xB6, 0x00, 0x76, 0xFF, 0x54, 0xE7, 0x56, 0xE7, 0x76, 0xE7, 
  0x02, 0xE7, 0x06, 0xFF, 0x7E, 0xE7, 0x78, 0xFF, };
