#define touchpad-disabled-symbolic_width 16
#define touchpad-disabled-symbolic_height 16
static char touchpad-disabled-symbolic_bits[] = {
  0xBE, 0x0F, 0xF6, 0x3E, 0x03, 0x60, 0x03, 0x60, 0x02, 0x60, 0x03, 0x60, 
  0x03, 0x60, 0x01, 0x60, 0x03, 0x60, 0xFE, 0x7F, 0x83, 0x00, 0x83, 0xF8, 
  0xBE, 0xFB, 0xFC, 0xFB, 0x00, 0xF8, 0x00, 0xFC, };
