#define user-trash-full-symbolic_width 16
#define user-trash-full-symbolic_height 16
static char user-trash-full-symbolic_bits[] = {
  0xE0, 0x07, 0xFE, 0x7F, 0xFE, 0x7F, 0x00, 0x00, 0xFC, 0x3F, 0xFC, 0x3F, 
  0xFC, 0x3F, 0xFC, 0x3F, 0xFC, 0x3F, 0xFC, 0x3F, 0xFC, 0x3F, 0xFC, 0x3F, 
  0xFC, 0x3F, 0xFC, 0x3F, 0xFC, 0x3F, 0x00, 0x00, };
