#define user-not-tracked-symbolic_width 16
#define user-not-tracked-symbolic_height 16
static char user-not-tracked-symbolic_bits[] = {
  0x40, 0x02, 0x90, 0x62, 0xF0, 0x73, 0xFC, 0x3B, 0x38, 0x1C, 0x8E, 0x6E, 
  0x46, 0x67, 0xA7, 0xC3, 0xC3, 0xC5, 0xE6, 0x62, 0x74, 0x33, 0x38, 0x1C, 
  0xDC, 0x0F, 0xCE, 0x03, 0x06, 0x00, 0x00, 0x00, };
