#define user-busy-symbolic_width 16
#define user-busy-symbolic_height 16
static char user-busy-symbolic_bits[] = {
  0x00, 0x00, 0x00, 0x00, 0xE0, 0x07, 0xF8, 0x1F, 0xFC, 0x3F, 0xFC, 0x3F, 
  0xFE, 0x7F, 0x0E, 0x70, 0x0E, 0x70, 0xFE, 0x7F, 0xFC, 0x3F, 0xFC, 0x3F, 
  0xF8, 0x3F, 0xE0, 0x3F, 0x00, 0x40, 0x00, 0x00, };
