#define user-away-symbolic_width 16
#define user-away-symbolic_height 16
static char user-away-symbolic_bits[] = {
  0x00, 0x00, 0x00, 0x00, 0xE0, 0x07, 0xF8, 0x1F, 0x3C, 0x3C, 0x0C, 0x30, 
  0x0E, 0x70, 0x06, 0x60, 0x06, 0x60, 0x06, 0x60, 0x0C, 0x30, 0x3C, 0x3C, 
  0xF8, 0x3F, 0xE0, 0x7F, 0x00, 0x00, 0x00, 0x00, };
