#define user-offline-symbolic_width 16
#define user-offline-symbolic_height 16
static char user-offline-symbolic_bits[] = {
  0x00, 0x00, 0x00, 0x00, 0xE0, 0x07, 0xF8, 0x1F, 0xBC, 0x3F, 0x9C, 0x30, 
  0x0E, 0x78, 0x3E, 0x7C, 0x3E, 0x7C, 0x0E, 0x70, 0x9E, 0x39, 0xFC, 0x3D, 
  0xF8, 0x3F, 0xE0, 0x7F, 0x00, 0x40, 0x00, 0x00, };
