#define user-idle-symbolic_width 16
#define user-idle-symbolic_height 16
static char user-idle-symbolic_bits[] = {
  0x00, 0x00, 0x00, 0x00, 0xE0, 0x07, 0xF8, 0x1F, 0xBC, 0x3C, 0x5C, 0x30, 
  0x4E, 0x60, 0x96, 0x60, 0x96, 0x74, 0x4E, 0x62, 0x5C, 0x39, 0xBC, 0x3E, 
  0xF8, 0x3F, 0xC0, 0x37, 0x00, 0x40, 0x00, 0x00, };
