#define user-status-pending-symbolic_width 16
#define user-status-pending-symbolic_height 16
static char user-status-pending-symbolic_bits[] = {
  0x00, 0x00, 0x00, 0x00, 0xE0, 0x07, 0xF8, 0x1F, 0xFC, 0x3F, 0xFC, 0x3F, 
  0xFE, 0x7F, 0x4E, 0x72, 0x4E, 0x72, 0xFE, 0x7F, 0xFC, 0x3F, 0xFC, 0x3F, 
  0xF8, 0x3F, 0xE0, 0x3B, 0x00, 0x40, 0x00, 0x00, };
