#define view-wrapped-symbolic-rtl_width 16
#define view-wrapped-symbolic-rtl_height 16
static char view-wrapped-symbolic-rtl_bits[] = {
  0x00, 0x00, 0xF0, 0x0F, 0xF8, 0x1F, 0x18, 0x18, 0x18, 0x18, 0x7E, 0x18, 
  0x7E, 0x18, 0x3C, 0x18, 0x18, 0x18, 0x00, 0x18, 0x00, 0x18, 0x00, 0x18, 
  0x00, 0x18, 0xC0, 0x1F, 0xC0, 0x0F, 0x00, 0x00, };
