#define view-wrapped-symbolic_width 16
#define view-wrapped-symbolic_height 16
static char view-wrapped-symbolic_bits[] = {
  0x00, 0x00, 0xF0, 0x0F, 0xF8, 0x1F, 0x18, 0x18, 0x18, 0x18, 0x18, 0x7E, 
  0x18, 0x7E, 0x18, 0x3C, 0x18, 0x18, 0x18, 0x00, 0x18, 0x00, 0x18, 0x00, 
  0x18, 0x00, 0xF8, 0x03, 0xF0, 0x03, 0x00, 0x00, };
