#define weather-clouds-symbolic_width 16
#define weather-clouds-symbolic_height 16
static char weather-clouds-symbolic_bits[] = {
  0x00, 0x00, 0x60, 0x08, 0x00, 0x0C, 0xC0, 0x03, 0xF6, 0x0E, 0x14, 0x0C, 
  0x18, 0x78, 0x98, 0x13, 0xE8, 0x0F, 0xF6, 0x3F, 0xF0, 0x7F, 0xF8, 0xFF, 
  0xFC, 0xFF, 0xFC, 0xFF, 0xFC, 0x7F, 0xF8, 0x3F, };
