#define weather-fog-symbolic_width 16
#define weather-fog-symbolic_height 16
static char weather-fog-symbolic_bits[] = {
  0x00, 0x00, 0x00, 0x00, 0x00, 0x00, 0x00, 0x00, 0x00, 0x00, 0xF0, 0xFF, 
  0xF0, 0xFF, 0x00, 0x00, 0xFF, 0x1F, 0xFF, 0x1F, 0x00, 0x00, 0xFC, 0x7F, 
  0xFC, 0x7F, 0x00, 0x00, 0x00, 0x00, 0x00, 0x00, };
