#define weather-showers-symbolic_width 16
#define weather-showers-symbolic_height 16
static char weather-showers-symbolic_bits[] = {
  0xC0, 0x01, 0xF0, 0x07, 0xF0, 0x1F, 0xF8, 0x3F, 0xFC, 0x7F, 0xFE, 0x7F, 
  0xFE, 0x7F, 0xFE, 0x3F, 0xFC, 0x1F, 0x00, 0x00, 0x10, 0x00, 0x10, 0x04, 
  0x10, 0x06, 0x80, 0x04, 0x80, 0x00, 0xC0, 0x00, };
