#define weather-severe-alert-symbolic_width 16
#define weather-severe-alert-symbolic_height 16
static char weather-severe-alert-symbolic_bits[] = {
  0x00, 0x00, 0x00, 0x00, 0x20, 0x00, 0xC0, 0x05, 0x20, 0x08, 0x48, 0x23, 
  0x30, 0x24, 0x84, 0x00, 0x64, 0x06, 0x00, 0x06, 0x00, 0x06, 0x00, 0x06, 
  0x00, 0x00, 0x00, 0x06, 0x00, 0x06, 0x00, 0x00, };
