#define weather-overcast-symbolic_width 16
#define weather-overcast-symbolic_height 16
static char weather-overcast-symbolic_bits[] = {
  0x00, 0x00, 0x00, 0x00, 0x00, 0x00, 0xC0, 0x03, 0xF0, 0x07, 0xF0, 0x1F, 
  0xF8, 0x3F, 0xFC, 0x7F, 0xFE, 0x7F, 0xFE, 0x7F, 0xFE, 0x3F, 0xFC, 0x1F, 
  0x00, 0x00, 0x00, 0x00, 0x00, 0x00, 0x00, 0x00, };
