#define weather-few-clouds-night-symbolic_width 16
#define weather-few-clouds-night-symbolic_height 16
static char weather-few-clouds-night-symbolic_bits[] = {
  0x00, 0x00, 0x00, 0x00, 0xC0, 0x01, 0xF0, 0x00, 0xD8, 0x00, 0xC8, 0x00, 
  0xCC, 0x00, 0x8C, 0x00, 0x8C, 0x01, 0x0C, 0x3B, 0x08, 0x7C, 0x18, 0xFF, 
  0xB0, 0xFF, 0x80, 0xFF, 0x80, 0x7F, 0x00, 0x3F, };
