#define weather-clouds-night-symbolic_width 16
#define weather-clouds-night-symbolic_height 16
static char weather-clouds-night-symbolic_bits[] = {
  0x00, 0x00, 0x00, 0x00, 0xC0, 0x01, 0xF0, 0x00, 0x98, 0x00, 0xCC, 0x00, 
  0x0C, 0x00, 0xC4, 0x03, 0xEC, 0x0F, 0xEC, 0x3F, 0xF0, 0x7F, 0xF8, 0xFF, 
  0xFC, 0xFF, 0xFC, 0xFF, 0xFC, 0x7F, 0xF8, 0x3F, };
