#define weather-storm-symbolic_width 16
#define weather-storm-symbolic_height 16
static char weather-storm-symbolic_bits[] = {
  0xC0, 0x03, 0xF0, 0x07, 0xF0, 0x1F, 0xF8, 0x3F, 0xFC, 0x7F, 0xFE, 0x7F, 
  0xFE, 0x7F, 0x1E, 0x3C, 0xDC, 0x1D, 0xC0, 0x00, 0xE0, 0x03, 0xE0, 0x01, 
  0x80, 0x00, 0x80, 0x00, 0x40, 0x00, 0x00, 0x00, };
