#define weather-few-clouds-symbolic_width 16
#define weather-few-clouds-symbolic_height 16
static char weather-few-clouds-symbolic_bits[] = {
  0x00, 0x00, 0x60, 0x08, 0x00, 0x0C, 0xC0, 0x03, 0xF6, 0x0F, 0x34, 0x0C, 
  0x18, 0x78, 0x18, 0x18, 0x18, 0x00, 0x1E, 0x38, 0x30, 0x7C, 0x60, 0xFF, 
  0x80, 0xFF, 0xB0, 0xFF, 0x90, 0x7F, 0x00, 0x7F, };
