#define weather-clear-night-symbolic_width 16
#define weather-clear-night-symbolic_height 16
static char weather-clear-night-symbolic_bits[] = {
  0x00, 0x00, 0x00, 0x00, 0xE0, 0x01, 0xF0, 0x00, 0xF8, 0x00, 0xC8, 0x00, 
  0xCC, 0x00, 0x8C, 0x00, 0x8C, 0x03, 0x0C, 0x3F, 0x0C, 0x1C, 0x18, 0x1C, 
  0xF0, 0x0F, 0xC0, 0x03, 0x00, 0x00, 0x00, 0x00, };
