#define weather-clear-symbolic_width 16
#define weather-clear-symbolic_height 16
static char weather-clear-symbolic_bits[] = {
  0x00, 0x00, 0x60, 0x08, 0x40, 0x0C, 0xC0, 0x0B, 0xFE, 0x0F, 0x34, 0x4C, 
  0x18, 0x78, 0x18, 0x18, 0x18, 0x18, 0x1E, 0x18, 0x31, 0x2C, 0xF0, 0x6F, 
  0xC0, 0x03, 0x30, 0x06, 0x10, 0x02, 0x00, 0x00, };
