#define weather-snow-symbolic_width 16
#define weather-snow-symbolic_height 16
static char weather-snow-symbolic_bits[] = {
  0xC0, 0x03, 0xF0, 0x07, 0xF0, 0x1F, 0xF8, 0x3F, 0xFC, 0x7F, 0xFE, 0x7F, 
  0xFE, 0x7F, 0xFE, 0x3F, 0x3C, 0x1F, 0xC0, 0x00, 0xC0, 0x00, 0x00, 0x06, 
  0x00, 0x06, 0x60, 0x00, 0x60, 0x00, 0x00, 0x00, };
