/* XPM */
static char * weather_xpm[] = {
"18 14 2 1",
" 	c None",
".	c #EEE8D5",
"                  ",
"           . .    ",
"         .     .  ",
"           ...    ",
"        . .   . . ",
"     ......   .   ",
"    ..     .  . . ",
"    .      ...    ",
"  ...        . .  ",
" .   .        .   ",
" .            .   ",
" .            .   ",
"  ............    ",
"                  "};
