/* XPM */
static char * wifi_xpm[] = {
"18 18 3 1",
" 	c None",
".	c #EEE8D5",
"+	c #EDE7D5",
"                  ",
"                  ",
"                  ",
"                  ",
"     ........     ",
"   ...      ...   ",
"  ..          ..  ",
" ..   ......   .. ",
"    .+.    ...    ",
"   ..        ..   ",
"       ....       ",
"      ..  ..      ",
"                  ",
"        ..        ",
"                  ",
"                  ",
"                  ",
"                  "};
